<svg width="380" height="67" viewBox="0 0 380 67" fill="none" xmlns="http://www.w3.org/2000/svg">
<g clip-path="url(#clip0_233_38)">
<path d="M146.355 53.1657C143.996 53.1693 141.661 52.7051 139.492 51.8012C137.324 50.8974 135.367 49.5729 133.741 47.9086V67H125.941V15.0514H133.378V19.6229C134.995 17.8251 136.992 16.3873 139.231 15.4072C141.47 14.4271 143.9 13.9277 146.355 13.9429C157.213 13.9429 165.384 22.1028 165.384 33.6C165.384 45.0971 157.213 53.1657 146.355 53.1657ZM145.48 21.08C138.772 21.08 133.448 25.9771 133.448 33.5714C133.448 41.1657 138.772 45.9943 145.48 45.9943C152.189 45.9943 157.507 40.8114 157.507 33.5714C157.507 26.3314 152.183 21.08 145.48 21.08Z" fill="#232323"/>
<path d="M208.025 15V52.0286H200.518V47.4857C198.895 49.2717 196.896 50.6968 194.656 51.664C192.417 52.6313 189.99 53.1181 187.541 53.0914C176.676 53.0914 168.588 45 168.588 33.5029C168.588 22.0057 176.676 13.8571 187.541 13.8571C189.996 13.8439 192.425 14.3441 194.664 15.3241C196.902 16.304 198.899 17.7408 200.518 19.5371V14.9657L208.025 15ZM200.518 33.5029C200.518 25.9086 195.124 21.08 188.415 21.08C181.707 21.08 176.389 26.2629 176.389 33.5029C176.389 40.7429 181.707 45.9257 188.415 45.9257C195.124 45.9257 200.518 41.0971 200.518 33.5029Z" fill="#232323"/>
<path d="M248.266 40.7429C248.266 48.1714 241.487 52.7429 232.518 52.7429C224.354 52.7429 217.135 49.76 212.985 46.2114L217.504 40.8914C221.66 43.7943 227.224 45.8572 232.507 45.8572C237.789 45.8572 240.307 43 240.307 40.96C240.307 33.6514 214.939 40.2514 214.939 24.92C214.939 18.6057 220.627 13.92 230.03 13.92C235.06 13.92 242.056 14.9143 247.38 18.8171L243.588 24.4971C239.478 22.1337 234.803 20.8609 230.03 20.8057C225.581 20.8057 222.81 22.6514 222.81 25.1314C222.822 32.3657 248.266 26.2629 248.266 40.7429Z" fill="#232323"/>
<path d="M293.32 33.5029C293.32 45 285.156 53.0914 274.291 53.0914C271.842 53.1181 269.415 52.6313 267.176 51.664C264.937 50.6968 262.938 49.2717 261.314 47.4857V52.0286H253.877V0.0285645H261.678V19.1257C263.304 17.4622 265.261 16.1383 267.429 15.2345C269.598 14.3307 271.933 13.8659 274.291 13.8686C285.156 13.8571 293.32 22.0057 293.32 33.5029ZM285.443 33.5029C285.443 26.2629 280.126 21.08 273.417 21.08C266.708 21.08 261.39 25.9086 261.39 33.5029C261.39 41.0971 266.708 45.9257 273.417 45.9257C280.126 45.9257 285.443 40.7429 285.443 33.5029Z" fill="#232323"/>
<path d="M335.968 15V52.0286H328.455V47.4857C326.832 49.2716 324.834 50.6966 322.596 51.6639C320.358 52.6311 317.932 53.118 315.483 53.0914C304.619 53.0914 296.525 45 296.525 33.5029C296.525 22.0057 304.619 13.8571 315.483 13.8571C317.937 13.8439 320.365 14.3443 322.603 15.3243C324.841 16.3042 326.837 17.741 328.455 19.5371V14.9657L335.968 15ZM328.455 33.5257C328.455 25.9314 323.061 21.1029 316.358 21.1029C309.655 21.1029 304.325 26.2857 304.325 33.5257C304.325 40.7657 309.649 45.9486 316.358 45.9486C323.067 45.9486 328.455 41.0971 328.455 33.5029V33.5257Z" fill="#232323"/>
<path d="M379.994 30.5943V52.0971H372.123V31.0914C372.123 24.7028 368.408 21.1543 362.497 21.1543C356.305 21.1543 351.563 24.9143 351.563 32.72V52.0971H343.762V15.0514H351.199V19.2343C352.935 17.5566 354.994 16.229 357.258 15.3279C359.523 14.4267 361.947 13.9696 364.393 13.9829C374.547 13.9829 379.994 20.0171 379.994 30.5943Z" fill="#232323"/>
<path d="M97.5092 14.3829C91.8804 14.2857 85.9229 14.2686 80.3058 14.0514H70.2397L60.2617 25.0343C59.8617 25.4745 59.3702 25.827 58.8197 26.0684C58.2693 26.3097 57.6724 26.4345 57.0687 26.4343H31.0788L19.7742 38.8457H40.8573C43.1239 38.8466 45.365 38.3789 47.4321 37.4736C49.4993 36.5683 51.3455 35.246 52.8485 33.5943L58.1311 27.7829C58.502 27.3639 58.9602 27.0265 59.4753 26.793C59.9903 26.5595 60.5505 26.4353 61.1186 26.4286H80.2941V26.4629C83.2993 26.4629 86.2985 26.5371 89.3037 26.5086H93.8115C94.6743 26.5086 96.5231 26.44 97.3331 26.5714C101.905 27.0743 104.236 32.7257 101.207 36.2114C100.66 36.9141 99.9692 37.4985 99.178 37.9274C98.3869 38.3563 97.5128 38.6203 96.6112 38.7028C96.3412 38.7028 94.2634 38.7429 93.923 38.7486C91.0998 38.7943 83.8569 38.6971 80.6874 38.7486H50.4597L40.4816 49.7371C40.0813 50.175 39.5904 50.5257 39.0411 50.7659C38.4919 51.0062 37.8967 51.1308 37.2945 51.1314H11.2987L0 63.5486H21.0772C23.3452 63.5488 25.5874 63.0803 27.6555 62.174C29.7237 61.2678 31.5707 59.9444 33.0744 58.2914L38.3569 52.48C38.7333 52.0659 39.196 51.7345 39.7141 51.5079C40.2323 51.2813 40.794 51.1646 41.362 51.1657H80.4408C85.4123 50.9886 92.843 50.8457 97.7381 50.68C107.411 50.1771 115.452 41.5828 115.135 32.2057C115.118 22.9428 107.012 14.6971 97.5092 14.3829Z" fill="#006EDA"/>
</g>
<defs>
<clipPath id="clip0_233_38">
<rect width="380" height="67" fill="white"/>
</clipPath>
</defs>
</svg>
