<svg width="148" height="26" viewBox="0 0 148 26" fill="none" xmlns="http://www.w3.org/2000/svg">
<g clip-path="url(#clip0_33_128)">
<mask id="mask0_33_128" style="mask-type:luminance" maskUnits="userSpaceOnUse" x="0" y="0" width="148" height="26">
<path d="M148 0H0V26H148V0Z" fill="white"/>
</mask>
<g mask="url(#mask0_33_128)">
<path d="M57.0014 20.6315C56.0827 20.6329 55.1732 20.4527 54.3285 20.102C53.4841 19.7512 52.7219 19.2373 52.0886 18.5914V26H49.0507V5.84085H51.9472V7.61486C52.577 6.91721 53.3548 6.35926 54.2268 5.97892C55.0989 5.59858 56.0453 5.40479 57.0014 5.41068C61.2303 5.41068 64.4127 8.57721 64.4127 13.0388C64.4127 17.5004 61.2303 20.6315 57.0014 20.6315ZM56.6606 8.1803C54.0481 8.1803 51.9745 10.0807 51.9745 13.0277C51.9745 15.9748 54.0481 17.8485 56.6606 17.8485C59.2736 17.8485 61.3448 15.8373 61.3448 13.0277C61.3448 10.2182 59.2713 8.1803 56.6606 8.1803Z" fill="white"/>
<path d="M81.0203 5.8209V20.1902H78.0965V18.4273C77.4644 19.1204 76.6858 19.6734 75.8134 20.0487C74.9414 20.4241 73.9961 20.613 73.0423 20.6026C68.8106 20.6026 65.6606 17.4627 65.6606 13.0011C65.6606 8.53953 68.8106 5.37739 73.0423 5.37739C73.9984 5.37227 74.9445 5.56637 75.8165 5.94667C76.6881 6.32693 77.4659 6.8845 78.0965 7.58157V5.80759L81.0203 5.8209ZM78.0965 13.0011C78.0965 10.0541 75.9957 8.1803 73.3827 8.1803C70.7701 8.1803 68.6989 10.1916 68.6989 13.0011C68.6989 15.8107 70.7701 17.8219 73.3827 17.8219C75.9957 17.8219 78.0965 15.9481 78.0965 13.0011Z" fill="white"/>
<path d="M96.6931 15.8107C96.6931 18.6934 94.0528 20.4674 90.5596 20.4674C87.38 20.4674 84.5683 19.3099 82.952 17.9328L84.7121 15.8683C86.3307 16.9948 88.4977 17.7953 90.5553 17.7953C92.6125 17.7953 93.5932 16.6866 93.5932 15.8949C93.5932 13.0588 83.7131 15.6199 83.7131 9.67045C83.7131 7.22013 85.9284 5.40179 89.5906 5.40179C91.5497 5.40179 94.2744 5.78764 96.348 7.30216L94.8711 9.50634C93.2704 8.5892 91.4496 8.09528 89.5906 8.07386C87.8578 8.07386 86.7786 8.7901 86.7786 9.75249C86.7833 12.5598 96.6931 10.1916 96.6931 15.8107Z" fill="white"/>
<path d="M114.24 13.0011C114.24 17.4627 111.061 20.6026 106.829 20.6026C105.875 20.613 104.93 20.4241 104.058 20.0487C103.186 19.6734 102.407 19.1204 101.775 18.4273V20.1902H98.8784V0.0110779H101.917V7.42191C102.55 6.77637 103.312 6.26262 104.157 5.91189C105.001 5.56116 105.911 5.38079 106.829 5.38184C111.061 5.37738 114.24 8.53952 114.24 13.0011ZM111.173 13.0011C111.173 10.1916 109.102 8.18029 106.489 8.18029C103.876 8.18029 101.805 10.0541 101.805 13.0011C101.805 15.9481 103.876 17.8219 106.489 17.8219C109.102 17.8219 111.173 15.8107 111.173 13.0011Z" fill="white"/>
<path d="M130.851 5.8209V20.1902H127.925V18.4273C127.292 19.1203 126.514 19.6733 125.643 20.0487C124.771 20.424 123.826 20.613 122.872 20.6026C118.641 20.6026 115.489 17.4627 115.489 13.0011C115.489 8.53953 118.641 5.37739 122.872 5.37739C123.828 5.37227 124.774 5.56645 125.645 5.94675C126.517 6.32701 127.294 6.88457 127.925 7.58157V5.80759L130.851 5.8209ZM127.925 13.01C127.925 10.0629 125.824 8.18919 123.213 8.18919C120.602 8.18919 118.527 10.2004 118.527 13.01C118.527 15.8195 120.6 17.8308 123.213 17.8308C125.826 17.8308 127.925 15.9481 127.925 13.0011V13.01Z" fill="white"/>
<path d="M147.998 11.8724V20.2168H144.932V12.0653C144.932 9.58616 143.485 8.20913 141.183 8.20913C138.771 8.20913 136.925 9.66823 136.925 12.6973V20.2168H133.886V5.84084H136.783V7.46405C137.459 6.81301 138.261 6.29782 139.143 5.94814C140.025 5.59842 140.969 5.42103 141.921 5.4262C145.876 5.4262 147.998 7.76783 147.998 11.8724Z" fill="white"/>
<path d="M37.9773 5.58143C35.785 5.54371 33.4647 5.53708 31.277 5.45279H27.3565L23.4703 9.71481C23.3146 9.88563 23.1231 10.0224 22.9087 10.1161C22.6944 10.2097 22.4619 10.2582 22.2268 10.2581H12.1044L7.70153 15.0745H15.9128C16.7956 15.0748 17.6685 14.8933 18.4736 14.542C19.2787 14.1907 19.9977 13.6776 20.5831 13.0366L22.6405 10.7814C22.785 10.6188 22.9634 10.4879 23.1641 10.3973C23.3646 10.3067 23.5828 10.2585 23.8041 10.2559H31.2724V10.2692C32.4429 10.2692 33.611 10.298 34.7814 10.2869H36.5371C36.8731 10.2869 37.5932 10.2603 37.9087 10.3113C39.6893 10.5065 40.5972 12.6995 39.4175 14.0522C39.2044 14.3249 38.9354 14.5517 38.6272 14.7181C38.3191 14.8845 37.9787 14.987 37.6275 15.019C37.5224 15.019 36.7131 15.0346 36.5805 15.0368C35.481 15.0545 32.6601 15.0168 31.4256 15.0368H19.6527L15.7665 19.301C15.6106 19.4709 15.4194 19.607 15.2055 19.7002C14.9916 19.7935 14.7598 19.8418 14.5252 19.842H4.40055L0 24.6607H8.20901C9.09234 24.6607 9.96562 24.4789 10.7711 24.1272C11.5766 23.7756 12.296 23.262 12.8816 22.6206L14.939 20.3654C15.0856 20.2047 15.2658 20.0761 15.4676 19.9881C15.6694 19.9002 15.8882 19.8549 16.1094 19.8554H31.3296C33.2658 19.7866 36.1599 19.7312 38.0664 19.6669C41.8338 19.4717 44.9655 16.1366 44.8421 12.4977C44.8354 8.90318 41.6784 5.70336 37.9773 5.58143Z" fill="white"/>
</g>
</g>
<defs>
<clipPath id="clip0_33_128">
<rect width="148" height="26" fill="white"/>
</clipPath>
</defs>
</svg>
