<svg width="28" height="28" viewBox="0 0 28 28" fill="none" xmlns="http://www.w3.org/2000/svg">
<path d="M4.375 0C3.21468 0 2.10188 0.460936 1.28141 1.28141C0.460936 2.10188 0 3.21468 0 4.375V20.125C0 21.2853 0.460936 22.3981 1.28141 23.2186C2.10188 24.0391 3.21468 24.5 4.375 24.5H11.55C11.2642 23.9405 11.0338 23.3544 10.8622 22.75H4.375C3.67881 22.75 3.01113 22.4734 2.51884 21.9812C2.02656 21.4889 1.75 20.8212 1.75 20.125V4.375C1.75 3.67881 2.02656 3.01113 2.51884 2.51884C3.01113 2.02656 3.67881 1.75 4.375 1.75H20.125C20.8212 1.75 21.4889 2.02656 21.9812 2.51884C22.4734 3.01113 22.75 3.67881 22.75 4.375V10.8622C23.3613 11.0361 23.9447 11.2653 24.5 11.55V4.375C24.5 3.21468 24.0391 2.10188 23.2186 1.28141C22.3981 0.460936 21.2853 0 20.125 0H4.375ZM10.8622 17.5C11.0361 16.8887 11.2653 16.3053 11.55 15.75H4.375C4.14294 15.75 3.92038 15.8422 3.75628 16.0063C3.59219 16.1704 3.5 16.3929 3.5 16.625C3.5 16.8571 3.59219 17.0796 3.75628 17.2437C3.92038 17.4078 4.14294 17.5 4.375 17.5H10.8622ZM9.625 21C9.85706 21 10.0796 20.9078 10.2437 20.7437C10.4078 20.5796 10.5 20.3571 10.5 20.125C10.5 19.8929 10.4078 19.6704 10.2437 19.5063C10.0796 19.3422 9.85706 19.25 9.625 19.25H4.375C4.14294 19.25 3.92038 19.3422 3.75628 19.5063C3.59219 19.6704 3.5 19.8929 3.5 20.125C3.5 20.3571 3.59219 20.5796 3.75628 20.7437C3.92038 20.9078 4.14294 21 4.375 21H9.625ZM8.75 3.5C8.9193 3.49998 9.08497 3.54907 9.22692 3.64132C9.36887 3.73358 9.48102 3.86503 9.54975 4.01975L13.0497 11.8947C13.0964 11.9998 13.1219 12.113 13.1248 12.2278C13.1277 12.3427 13.108 12.4571 13.0667 12.5643C13.0254 12.6716 12.9634 12.7696 12.8843 12.8529C12.8051 12.9362 12.7103 13.0031 12.6053 13.0497C12.5002 13.0964 12.387 13.1219 12.2722 13.1248C12.1573 13.1277 12.0429 13.108 11.9357 13.0667C11.8284 13.0254 11.7304 12.9634 11.6471 12.8843C11.5638 12.8051 11.4969 12.7103 11.4503 12.6053L10.514 10.5H6.986L6.04975 12.6053C5.95553 12.8174 5.78091 12.9833 5.56431 13.0667C5.3477 13.1501 5.10686 13.144 4.89475 13.0497C4.68264 12.9555 4.51665 12.7809 4.43329 12.5643C4.34993 12.3477 4.35603 12.1069 4.45025 11.8947L7.95025 4.01975C8.01898 3.86503 8.13113 3.73358 8.27308 3.64132C8.41503 3.54907 8.5807 3.49998 8.75 3.5ZM9.737 8.75L8.75 6.52925L7.763 8.75H9.737ZM18.375 4.375C18.375 4.14294 18.2828 3.92038 18.1187 3.75628C17.9546 3.59219 17.7321 3.5 17.5 3.5C17.2679 3.5 17.0454 3.59219 16.8813 3.75628C16.7172 3.92038 16.625 4.14294 16.625 4.375V6.125H14.875C14.6429 6.125 14.4204 6.21719 14.2563 6.38128C14.0922 6.54538 14 6.76794 14 7C14 7.23206 14.0922 7.45462 14.2563 7.61872C14.4204 7.78281 14.6429 7.875 14.875 7.875H16.625V9.625C16.625 9.85706 16.7172 10.0796 16.8813 10.2437C17.0454 10.4078 17.2679 10.5 17.5 10.5C17.7321 10.5 17.9546 10.4078 18.1187 10.2437C18.2828 10.0796 18.375 9.85706 18.375 9.625V7.875H20.125C20.3571 7.875 20.5796 7.78281 20.7437 7.61872C20.9078 7.45462 21 7.23206 21 7C21 6.76794 20.9078 6.54538 20.7437 6.38128C20.5796 6.21719 20.3571 6.125 20.125 6.125H18.375V4.375ZM28 20.125C28 22.2136 27.1703 24.2166 25.6935 25.6935C24.2166 27.1703 22.2136 28 20.125 28C18.0364 28 16.0334 27.1703 14.5565 25.6935C13.0797 24.2166 12.25 22.2136 12.25 20.125C12.25 18.0364 13.0797 16.0334 14.5565 14.5565C16.0334 13.0797 18.0364 12.25 20.125 12.25C22.2136 12.25 24.2166 13.0797 25.6935 14.5565C27.1703 16.0334 28 18.0364 28 20.125ZM21 16.625C21 16.3929 20.9078 16.1704 20.7437 16.0063C20.5796 15.8422 20.3571 15.75 20.125 15.75C19.8929 15.75 19.6704 15.8422 19.5063 16.0063C19.3422 16.1704 19.25 16.3929 19.25 16.625V19.25H16.625C16.3929 19.25 16.1704 19.3422 16.0063 19.5063C15.8422 19.6704 15.75 19.8929 15.75 20.125C15.75 20.3571 15.8422 20.5796 16.0063 20.7437C16.1704 20.9078 16.3929 21 16.625 21H19.25V23.625C19.25 23.8571 19.3422 24.0796 19.5063 24.2437C19.6704 24.4078 19.8929 24.5 20.125 24.5C20.3571 24.5 20.5796 24.4078 20.7437 24.2437C20.9078 24.0796 21 23.8571 21 23.625V21H23.625C23.8571 21 24.0796 20.9078 24.2437 20.7437C24.4078 20.5796 24.5 20.3571 24.5 20.125C24.5 19.8929 24.4078 19.6704 24.2437 19.5063C24.0796 19.3422 23.8571 19.25 23.625 19.25H21V16.625Z" fill="#264A6C"/>
</svg>
