<svg width="22" height="28" viewBox="0 0 22 28" fill="none" xmlns="http://www.w3.org/2000/svg">
<path fill-rule="evenodd" clip-rule="evenodd" d="M4.76672 16.2C4.76672 15.9082 4.88262 15.6284 5.08891 15.4222C5.2952 15.2159 5.57499 15.1 5.86672 15.1H16.1334C16.4251 15.1 16.7049 15.2159 16.9112 15.4222C17.1175 15.6284 17.2334 15.9082 17.2334 16.2C17.2334 16.4917 17.1175 16.7715 16.9112 16.9778C16.7049 17.1841 16.4251 17.3 16.1334 17.3H5.86672C5.57499 17.3 5.2952 17.1841 5.08891 16.9778C4.88262 16.7715 4.76672 16.4917 4.76672 16.2ZM4.76672 20.6C4.76672 20.3082 4.88262 20.0284 5.08891 19.8222C5.2952 19.6159 5.57499 19.5 5.86672 19.5H16.1334C16.4251 19.5 16.7049 19.6159 16.9112 19.8222C17.1175 20.0284 17.2334 20.3082 17.2334 20.6C17.2334 20.8917 17.1175 21.1715 16.9112 21.3778C16.7049 21.5841 16.4251 21.7 16.1334 21.7H5.86672C5.57499 21.7 5.2952 21.5841 5.08891 21.3778C4.88262 21.1715 4.76672 20.8917 4.76672 20.6Z" fill="#264A6C"/>
<path fill-rule="evenodd" clip-rule="evenodd" d="M0 2.99998C0 1.38372 1.31707 0.0666504 2.93333 0.0666504H12.7453C13.5696 0.0666504 14.3469 0.415717 14.894 0.992117L14.9028 1.00238L21.2271 7.89865C21.7536 8.46038 22 9.19518 22 9.89332V25C22 26.6163 20.6829 27.9333 19.0667 27.9333H2.93333C1.31707 27.9333 0 26.6163 0 25V2.99998ZM12.7439 2.99998H2.93333V25H19.0667V9.88158L12.7659 3.01025L12.7615 3.00878C12.7561 3.0049 12.7502 3.00193 12.7439 2.99998Z" fill="#264A6C"/>
<path fill-rule="evenodd" clip-rule="evenodd" d="M12.7452 0.0666504C13.1342 0.0666504 13.5073 0.221174 13.7823 0.496227C14.0574 0.77128 14.2119 1.14433 14.2119 1.53332V8.42665H20.5332C20.7258 8.42665 20.9166 8.46459 21.0945 8.53829C21.2724 8.612 21.4341 8.72003 21.5703 8.85623C21.7065 8.99242 21.8145 9.1541 21.8883 9.33205C21.962 9.50999 21.9999 9.70071 21.9999 9.89332C21.9999 10.0859 21.962 10.2766 21.8883 10.4546C21.8145 10.6325 21.7065 10.7942 21.5703 10.9304C21.4341 11.0666 21.2724 11.1746 21.0945 11.2483C20.9166 11.322 20.7258 11.36 20.5332 11.36H12.7452C12.3562 11.36 11.9832 11.2055 11.7081 10.9304C11.4331 10.6554 11.2786 10.2823 11.2786 9.89332V1.53332C11.2786 1.14433 11.4331 0.77128 11.7081 0.496227C11.9832 0.221174 12.3562 0.0666504 12.7452 0.0666504Z" fill="#264A6C"/>
</svg>
