<svg width="31" height="41" viewBox="0 0 31 41" fill="none" xmlns="http://www.w3.org/2000/svg">
<path d="M7.1998 10.5247H12.8998M7.1998 20.4998H24.2999M7.1998 26.1998H24.2999M7.1998 31.8998H12.8998M4.34978 39.0249H27.15C27.9058 39.0249 28.6307 38.7246 29.1652 38.1901C29.6997 37.6557 30 36.9308 30 36.1749V4.82463C30 4.06876 29.6997 3.34384 29.1652 2.80936C28.6307 2.27488 27.9058 1.97461 27.15 1.97461H4.34978C3.59391 1.97461 2.86899 2.27488 2.33451 2.80936C1.80003 3.34384 1.49976 4.06876 1.49976 4.82463V36.1749C1.49976 36.9308 1.80003 37.6557 2.33451 38.1901C2.86899 38.7246 3.59391 39.0249 4.34978 39.0249Z" stroke="#264A6C" stroke-width="2" stroke-linecap="round" stroke-linejoin="round"/>
</svg>
