<svg width="16" height="16" viewBox="0 0 16 16" fill="none" xmlns="http://www.w3.org/2000/svg">
<path d="M8.125 7C8.74632 7 9.25 6.49632 9.25 5.875C9.25 5.25368 8.74632 4.75 8.125 4.75C7.50368 4.75 7 5.25368 7 5.875C7 6.49632 7.50368 7 8.125 7Z" stroke="#94A3B8" stroke-linecap="round"/>
<path d="M10.9007 5.31261C10.974 5.18364 11.0721 5.07044 11.1894 4.97954C11.3066 4.88864 11.4407 4.82183 11.5839 4.78295C11.7271 4.74408 11.8765 4.73391 12.0237 4.75304C12.1708 4.77216 12.3127 4.8202 12.4412 4.89438C12.5697 4.96857 12.6822 5.06743 12.7723 5.18529C12.8625 5.30314 12.9284 5.43766 12.9663 5.5811C13.0042 5.72454 13.0134 5.87406 12.9933 6.02106C12.9732 6.16805 12.9242 6.30962 12.8492 6.43762C12.6989 6.6939 12.4534 6.88035 12.1662 6.95628C11.879 7.03222 11.5734 6.99147 11.3162 6.84292C11.0589 6.69438 10.8708 6.45011 10.793 6.16341C10.7151 5.87671 10.7539 5.57087 10.9007 5.31261ZM3.40068 5.31261C3.47401 5.18364 3.57213 5.07044 3.68939 4.97954C3.80664 4.88864 3.94072 4.82183 4.0839 4.78295C4.22709 4.74408 4.37654 4.73391 4.52367 4.75304C4.6708 4.77216 4.81269 4.8202 4.94118 4.89438C5.06966 4.96857 5.18221 5.06743 5.27233 5.18529C5.36245 5.30314 5.42837 5.43766 5.4663 5.5811C5.50422 5.72454 5.51339 5.87406 5.49329 6.02106C5.47319 6.16805 5.42422 6.30962 5.34918 6.43762C5.19894 6.6939 4.95342 6.88035 4.66622 6.95628C4.37901 7.03222 4.07343 6.99147 3.81615 6.84292C3.55888 6.69438 3.3708 6.45011 3.29297 6.16341C3.21513 5.87671 3.25385 5.57087 3.40068 5.31261Z" stroke="#94A3B8"/>
<path d="M9.70006 9.01375L9.48256 8.70925L9.08281 8.99425L9.46306 9.30475L9.70006 9.01375ZM13.7501 11.125H10.0001V11.875H13.7501V11.125ZM14.0336 10.8467C14.0423 10.8785 14.0427 10.912 14.0347 10.9439C14.0267 10.9758 14.0105 11.0052 13.9878 11.029C13.9569 11.0605 13.9199 11.0853 13.879 11.1018C13.8381 11.1184 13.7942 11.1262 13.7501 11.125V11.875C14.3501 11.875 14.9276 11.3628 14.7626 10.672L14.0336 10.8467ZM11.5001 8.875C12.4196 8.875 12.9926 9.18175 13.3616 9.559C13.7411 9.94675 13.9353 10.4395 14.0336 10.8467L14.7626 10.672C14.6471 10.1905 14.4063 9.5545 13.8978 9.034C13.3781 8.50375 12.6078 8.125 11.5001 8.125V8.875ZM9.91756 9.319C10.2761 9.06325 10.7801 8.875 11.5001 8.875V8.125C10.6406 8.125 9.98131 8.35225 9.48256 8.70925L9.91756 9.319ZM9.46306 9.304C9.95281 9.7045 10.1861 10.3263 10.2933 10.8347L11.0276 10.6802C10.9061 10.105 10.6226 9.283 9.93706 8.7235L9.46306 9.304ZM10.2933 10.8347C10.3014 10.8687 10.3008 10.9034 10.2916 10.9371C10.2825 10.9707 10.265 11.0016 10.2408 11.0268C10.2096 11.0588 10.1721 11.084 10.1306 11.1009C10.0892 11.1178 10.0448 11.126 10.0001 11.125V11.875C10.6031 11.875 11.1708 11.365 11.0276 10.6802L10.2933 10.8347ZM6.55006 9.01375L6.78706 9.30475L7.16731 8.99425L6.76831 8.70925L6.55006 9.01375ZM4.75006 8.875C5.47006 8.875 5.97331 9.0625 6.33256 9.319L6.76756 8.7085C6.26956 8.353 5.61031 8.125 4.75006 8.125V8.875ZM2.21656 10.8467C2.31406 10.4395 2.50906 9.94675 2.88856 9.559C3.25756 9.18175 3.83056 8.875 4.75006 8.875V8.125C3.64156 8.125 2.87206 8.50375 2.35231 9.034C1.84381 9.55375 1.60231 10.1905 1.48756 10.672L2.21656 10.8467ZM2.50006 11.125C2.45596 11.1262 2.41207 11.1184 2.37116 11.1018C2.33025 11.0853 2.29319 11.0605 2.26231 11.029C2.23971 11.0051 2.22369 10.9757 2.2158 10.9438C2.20792 10.9119 2.20769 10.8784 2.21656 10.8467L1.48756 10.672C1.32256 11.3628 1.90006 11.875 2.50006 11.875V11.125ZM6.25006 11.125H2.50006V11.875H6.25006V11.125ZM6.25006 11.125C6.20527 11.1262 6.16071 11.1182 6.11916 11.1014C6.07761 11.0846 6.03996 11.0595 6.00856 11.0275C5.98438 11.0023 5.9669 10.9715 5.95772 10.9378C5.94855 10.9041 5.94798 10.8687 5.95606 10.8347L5.22256 10.6802C5.07856 11.3642 5.64706 11.875 6.25006 11.875V11.125ZM5.95681 10.8347C6.06406 10.3247 6.29731 9.7045 6.78706 9.30475L6.31306 8.7235C5.62756 9.283 5.34406 10.105 5.22256 10.6802L5.95681 10.8347Z" fill="#94A3B8"/>
<path d="M13 15.25H14.125C14.4234 15.25 14.7095 15.1315 14.9205 14.9205C15.1315 14.7095 15.25 14.4234 15.25 14.125V13M13 1H14.125C14.4234 1 14.7095 1.11853 14.9205 1.3295C15.1315 1.54048 15.25 1.82663 15.25 2.125V3.25M3.25 15.25H2.125C1.82663 15.25 1.54048 15.1315 1.3295 14.9205C1.11853 14.7095 1 14.4234 1 14.125V13M3.25 1H2.125C1.82663 1 1.54048 1.11853 1.3295 1.3295C1.11853 1.54048 1 1.82663 1 2.125V3.25M8.125 8.5C9.898 8.5 10.4733 9.86875 10.66 10.7575C10.7455 11.1625 10.414 11.5 10 11.5H6.25C5.836 11.5 5.5045 11.1625 5.59 10.7575C5.77675 9.86875 6.352 8.5 8.125 8.5Z" stroke="#94A3B8" stroke-linecap="round"/>
</svg>
