<svg width="31" height="31" viewBox="0 0 31 31" fill="none" xmlns="http://www.w3.org/2000/svg">
<path d="M3.875 7.42708C3.875 6.48501 4.24924 5.58153 4.91538 4.91538C5.58153 4.24924 6.48501 3.875 7.42708 3.875H23.5729C24.515 3.875 25.4185 4.24924 26.0846 4.91538C26.7508 5.58153 27.125 6.48501 27.125 7.42708V15.5284C26.5209 15.1416 25.8698 14.8339 25.1875 14.6126V7.42708C25.1875 6.53583 24.4642 5.8125 23.5729 5.8125H7.42708C6.53583 5.8125 5.8125 6.53583 5.8125 7.42708V23.5729C5.8125 24.4642 6.53583 25.1875 7.42708 25.1875H14.6126C14.8361 25.8773 15.1448 26.527 15.5284 27.125H7.42708C6.48501 27.125 5.58153 26.7508 4.91538 26.0846C4.24924 25.4185 3.875 24.515 3.875 23.5729V7.42708ZM8.71875 17.4375H15.9857C15.5226 18.0297 15.1412 18.6813 14.8516 19.375H8.71875C8.46182 19.375 8.21542 19.2729 8.03374 19.0913C7.85206 18.9096 7.75 18.6632 7.75 18.4063C7.75 18.1493 7.85206 17.9029 8.03374 17.7212C8.21542 17.5396 8.46182 17.4375 8.71875 17.4375ZM13.2396 23.8958H8.71875C8.46182 23.8958 8.21542 23.7938 8.03374 23.6121C7.85206 23.4304 7.75 23.184 7.75 22.9271C7.75 22.6702 7.85206 22.4237 8.03374 22.2421C8.21542 22.0604 8.46182 21.9583 8.71875 21.9583H13.2396C13.4965 21.9583 13.7429 22.0604 13.9246 22.2421C14.1063 22.4237 14.2083 22.6702 14.2083 22.9271C14.2083 23.184 14.1063 23.4304 13.9246 23.6121C13.7429 23.7938 13.4965 23.8958 13.2396 23.8958ZM12.9167 6.45446C13.1091 6.4546 13.2971 6.51205 13.4568 6.61948C13.6164 6.72691 13.7405 6.87946 13.8131 7.05767L16.7168 14.1644C16.814 14.4023 16.8128 14.6692 16.7134 14.9062C16.614 15.1432 16.4244 15.331 16.1865 15.4283C15.9486 15.5256 15.6818 15.5244 15.4448 15.425C15.2077 15.3255 15.0199 15.136 14.9226 14.8981L14.3763 13.5599H11.4545L10.9068 14.8981C10.8063 15.131 10.6183 15.3152 10.3834 15.411C10.1485 15.5068 9.88537 15.5067 9.65057 15.4106C9.41577 15.3145 9.22803 15.1301 9.1277 14.8971C9.02737 14.6641 9.02245 14.401 9.114 14.1644L12.0203 7.05767C12.0929 6.87946 12.2169 6.72691 12.3766 6.61948C12.5362 6.51205 12.7242 6.4546 12.9167 6.45446ZM12.2463 11.6211H13.5858L12.9167 9.98458L12.2463 11.6211ZM20.3438 6.45446C20.6007 6.45446 20.8471 6.55652 21.0288 6.7382C21.2104 6.91987 21.3125 7.16628 21.3125 7.42321V9.03779H22.9271C23.184 9.03779 23.4304 9.13986 23.6121 9.32153C23.7938 9.50321 23.8958 9.74961 23.8958 10.0065C23.8958 10.2635 23.7938 10.5099 23.6121 10.6916C23.4304 10.8732 23.184 10.9753 22.9271 10.9753H21.3125V12.5899C21.3125 12.8468 21.2104 13.0932 21.0288 13.2749C20.8471 13.4566 20.6007 13.5586 20.3438 13.5586C20.0868 13.5586 19.8404 13.4566 19.6587 13.2749C19.4771 13.0932 19.375 12.8468 19.375 12.5899V10.9753H17.7604C17.5035 10.9753 17.2571 10.8732 17.0754 10.6916C16.8937 10.5099 16.7917 10.2635 16.7917 10.0065C16.7917 9.74961 16.8937 9.50321 17.0754 9.32153C17.2571 9.13986 17.5035 9.03779 17.7604 9.03779H19.375V7.42321C19.375 7.16628 19.4771 6.91987 19.6587 6.7382C19.8404 6.55652 20.0868 6.45446 20.3438 6.45446ZM29.7083 22.6042C29.7083 20.72 28.9599 18.9131 27.6276 17.5808C26.2953 16.2485 24.4883 15.5 22.6042 15.5C20.72 15.5 18.9131 16.2485 17.5808 17.5808C16.2485 18.9131 15.5 20.72 15.5 22.6042C15.5 24.4883 16.2485 26.2953 17.5808 27.6276C18.9131 28.9599 20.72 29.7083 22.6042 29.7083C24.4883 29.7083 26.2953 28.9599 27.6276 27.6276C28.9599 26.2953 29.7083 24.4883 29.7083 22.6042ZM23.25 23.25L23.2513 26.483C23.2513 26.6543 23.1833 26.8186 23.0621 26.9397C22.941 27.0608 22.7767 27.1289 22.6055 27.1289C22.4342 27.1289 22.2699 27.0608 22.1488 26.9397C22.0277 26.8186 21.9596 26.6543 21.9596 26.483V23.25H18.724C18.5527 23.25 18.3884 23.182 18.2673 23.0608C18.1462 22.9397 18.0782 22.7755 18.0782 22.6042C18.0782 22.4329 18.1462 22.2686 18.2673 22.1475C18.3884 22.0264 18.5527 21.9583 18.724 21.9583H21.9583V18.7292C21.9583 18.5579 22.0264 18.3936 22.1475 18.2725C22.2686 18.1514 22.4329 18.0833 22.6042 18.0833C22.7755 18.0833 22.9397 18.1514 23.0608 18.2725C23.182 18.3936 23.25 18.5579 23.25 18.7292V21.9583H26.483C26.6543 21.9583 26.8186 22.0264 26.9397 22.1475C27.0608 22.2686 27.1289 22.4329 27.1289 22.6042C27.1289 22.7755 27.0608 22.9397 26.9397 23.0608C26.8186 23.182 26.6543 23.25 26.483 23.25H23.25Z" fill="#42A5F5"/>
</svg>
