<svg width="12" height="13" viewBox="0 0 12 13" fill="none" xmlns="http://www.w3.org/2000/svg">
<path d="M10.2 1.7H9V1.1C9 0.94087 8.93679 0.788258 8.82426 0.675736C8.71174 0.563214 8.55913 0.5 8.4 0.5C8.24087 0.5 8.08826 0.563214 7.97574 0.675736C7.86321 0.788258 7.8 0.94087 7.8 1.1V1.7H4.2V1.1C4.2 0.94087 4.13679 0.788258 4.02426 0.675736C3.91174 0.563214 3.75913 0.5 3.6 0.5C3.44087 0.5 3.28826 0.563214 3.17574 0.675736C3.06321 0.788258 3 0.94087 3 1.1V1.7H1.8C1.32261 1.7 0.864773 1.88964 0.527208 2.22721C0.189642 2.56477 0 3.02261 0 3.5V10.7C0 11.1774 0.189642 11.6352 0.527208 11.9728C0.864773 12.3104 1.32261 12.5 1.8 12.5H10.2C10.6774 12.5 11.1352 12.3104 11.4728 11.9728C11.8104 11.6352 12 11.1774 12 10.7V3.5C12 3.02261 11.8104 2.56477 11.4728 2.22721C11.1352 1.88964 10.6774 1.7 10.2 1.7ZM10.8 10.7C10.8 10.8591 10.7368 11.0117 10.6243 11.1243C10.5117 11.2368 10.3591 11.3 10.2 11.3H1.8C1.64087 11.3 1.48826 11.2368 1.37574 11.1243C1.26321 11.0117 1.2 10.8591 1.2 10.7V6.5H10.8V10.7ZM10.8 5.3H1.2V3.5C1.2 3.34087 1.26321 3.18826 1.37574 3.07574C1.48826 2.96321 1.64087 2.9 1.8 2.9H3V3.5C3 3.65913 3.06321 3.81174 3.17574 3.92426C3.28826 4.03679 3.44087 4.1 3.6 4.1C3.75913 4.1 3.91174 4.03679 4.02426 3.92426C4.13679 3.81174 4.2 3.65913 4.2 3.5V2.9H7.8V3.5C7.8 3.65913 7.86321 3.81174 7.97574 3.92426C8.08826 4.03679 8.24087 4.1 8.4 4.1C8.55913 4.1 8.71174 4.03679 8.82426 3.92426C8.93679 3.81174 9 3.65913 9 3.5V2.9H10.2C10.3591 2.9 10.5117 2.96321 10.6243 3.07574C10.7368 3.18826 10.8 3.34087 10.8 3.5V5.3Z" fill="#006EDA"/>
</svg>
