<svg width="27" height="28" viewBox="0 0 27 28" fill="none" xmlns="http://www.w3.org/2000/svg">
<path d="M27 21.5714C27 20.4483 26.6669 19.3504 26.0429 18.4166C25.419 17.4828 24.5321 16.7549 23.4945 16.3251C22.4568 15.8953 21.3151 15.7829 20.2135 16.002C19.112 16.2211 18.1002 16.7619 17.306 17.5561C16.5118 18.3502 15.971 19.3621 15.7519 20.4636C15.5328 21.5651 15.6452 22.7069 16.075 23.7445C16.5048 24.7822 17.2327 25.669 18.1665 26.293C19.1003 26.917 20.1982 27.25 21.3214 27.25C22.8269 27.2483 24.2702 26.6494 25.3348 25.5849C26.3994 24.5203 26.9982 23.077 27 21.5714ZM25.1071 21.5714C25.1037 22.2451 24.9182 22.9053 24.5705 23.4823L19.4105 18.3223C19.9875 17.9746 20.6477 17.7892 21.3214 17.7857C22.325 17.787 23.2872 18.1862 23.9969 18.8959C24.7066 19.6056 25.1058 20.5678 25.1071 21.5714ZM17.5356 21.5714C17.5391 20.8978 17.7245 20.2376 18.0723 19.6606L23.2322 24.8205C22.6552 25.1683 21.995 25.3537 21.3214 25.3572C20.3177 25.3559 19.3555 24.9567 18.6458 24.247C17.9361 23.5373 17.5369 22.5751 17.5356 21.5714ZM6.17847 14H15.6428V15.8929H6.17847V14ZM6.17847 8.32141H17.5356V10.2143H6.17847V8.32141Z" fill="#264A6C"/>
<path d="M11.8572 25.1045L6.90356 22.464C5.54021 21.7383 4.40009 20.6552 3.60546 19.3309C2.81082 18.0066 2.39164 16.4909 2.39287 14.9465V2.64286H21.3215V13.0536H23.2144V2.64286C23.2144 2.14084 23.0149 1.65939 22.6599 1.30441C22.305 0.949426 21.8235 0.75 21.3215 0.75H2.39287C1.89085 0.75 1.40939 0.949426 1.05441 1.30441C0.699433 1.65939 0.500007 2.14084 0.500007 2.64286V14.9465C0.497795 16.834 1.00972 18.6865 1.98083 20.3051C2.95193 21.9236 4.34554 23.2471 6.01202 24.1335L11.8572 27.2501V25.1045Z" fill="#264A6C"/>
</svg>
