<svg width="12" height="13" viewBox="0 0 12 13" fill="none" xmlns="http://www.w3.org/2000/svg">
<path d="M6 11.3C7.27304 11.3 8.49394 10.7943 9.39411 9.89411C10.2943 8.99394 10.8 7.77304 10.8 6.5C10.8 5.22696 10.2943 4.00606 9.39411 3.10589C8.49394 2.20571 7.27304 1.7 6 1.7C4.72696 1.7 3.50606 2.20571 2.60589 3.10589C1.70571 4.00606 1.2 5.22696 1.2 6.5C1.2 7.77304 1.70571 8.99394 2.60589 9.89411C3.50606 10.7943 4.72696 11.3 6 11.3ZM6 0.5C6.78793 0.5 7.56815 0.655195 8.2961 0.956723C9.02405 1.25825 9.68549 1.70021 10.2426 2.25736C10.7998 2.81451 11.2417 3.47595 11.5433 4.2039C11.8448 4.93185 12 5.71207 12 6.5C12 8.0913 11.3679 9.61742 10.2426 10.7426C9.11742 11.8679 7.5913 12.5 6 12.5C2.682 12.5 0 9.8 0 6.5C0 4.9087 0.632141 3.38258 1.75736 2.25736C2.88258 1.13214 4.4087 0.5 6 0.5ZM6.3 3.5V6.65L9 8.252L8.55 8.99L5.4 7.1V3.5H6.3Z" fill="#006EDA"/>
</svg>
