<svg width="36" height="35" viewBox="0 0 36 35" fill="none" xmlns="http://www.w3.org/2000/svg">
<path fill-rule="evenodd" clip-rule="evenodd" d="M30.4906 9.38437L23.9281 2.82187L22.375 2.1875H9.25L7.0625 4.375V30.625L9.25 32.8125H20.9619C20.25 32.1853 19.645 31.4465 19.1703 30.625H9.25V4.375H22.375L28.9375 10.9375V17.7756C29.7163 17.9769 30.4454 18.2758 31.125 18.6725V10.9375L30.4906 9.38437ZM18.2756 24.0625H13.625V26.25H18C18.0029 25.4931 18.0948 24.764 18.2756 24.0625ZM13.625 13.125H18V8.75H20.1875V13.125H24.5625V15.3125H20.1875V19.6875H18V15.3125H13.625V13.125Z" fill="#264A6C"/>
<path d="M26.75 19.6875C25.0095 19.6875 23.3403 20.3789 22.1096 21.6096C20.8789 22.8403 20.1875 24.5095 20.1875 26.25C20.1875 27.9905 20.8789 29.6597 22.1096 30.8904C23.3403 32.1211 25.0095 32.8125 26.75 32.8125C28.4905 32.8125 30.1597 32.1211 31.3904 30.8904C32.6211 29.6597 33.3125 27.9905 33.3125 26.25C33.3125 24.5095 32.6211 22.8403 31.3904 21.6096C30.1597 20.3789 28.4905 19.6875 26.75 19.6875Z" fill="#264A6C"/>
</svg>
