<svg width="24" height="24" viewBox="0 0 24 24" fill="none" xmlns="http://www.w3.org/2000/svg">
<path d="M24 14.6667V21.3333C24 22.0406 23.719 22.7189 23.219 23.219C22.7189 23.719 22.0406 24 21.3333 24H2.66667C1.95942 24 1.28115 23.719 0.781048 23.219C0.280951 22.7189 0 22.0406 0 21.3333V2.66667C0 1.95942 0.280951 1.28115 0.781048 0.781048C1.28115 0.280951 1.95942 0 2.66667 0H9.33333V2.66667H2.66667V21.3333H21.3333V14.6667H24Z" fill="#264A6C"/>
<path d="M24.0001 5.33333H18.6667V0H16.0001V5.33333H10.6667V8H16.0001V13.3333H18.6667V8H24.0001V5.33333Z" fill="#264A6C"/>
</svg>
