<svg width="28" height="26" viewBox="0 0 28 26" fill="none" xmlns="http://www.w3.org/2000/svg">
<path d="M9.33332 12.2083L11.2708 6.39583H22.8958L24.8333 12.2083M22.8958 18.6667C22.382 18.6667 21.8892 18.4625 21.5258 18.0992C21.1625 17.7358 20.9583 17.243 20.9583 16.7292C20.9583 16.2153 21.1625 15.7225 21.5258 15.3591C21.8892 14.9958 22.382 14.7917 22.8958 14.7917C23.4097 14.7917 23.9025 14.9958 24.2658 15.3591C24.6292 15.7225 24.8333 16.2153 24.8333 16.7292C24.8333 17.243 24.6292 17.7358 24.2658 18.0992C23.9025 18.4625 23.4097 18.6667 22.8958 18.6667ZM11.2708 18.6667C10.757 18.6667 10.2642 18.4625 9.9008 18.0992C9.53745 17.7358 9.33332 17.243 9.33332 16.7292C9.33332 16.2153 9.53745 15.7225 9.9008 15.3591C10.2642 14.9958 10.757 14.7917 11.2708 14.7917C11.7847 14.7917 12.2775 14.9958 12.6408 15.3591C13.0042 15.7225 13.2083 16.2153 13.2083 16.7292C13.2083 17.243 13.0042 17.7358 12.6408 18.0992C12.2775 18.4625 11.7847 18.6667 11.2708 18.6667ZM24.73 5.74999C24.4587 4.97499 23.7225 4.45833 22.8958 4.45833H11.2708C10.4442 4.45833 9.70791 4.97499 9.43666 5.74999L6.74999 13.5V23.8333C6.74999 24.1759 6.88608 24.5044 7.12831 24.7467C7.37054 24.9889 7.69908 25.125 8.04166 25.125H9.33332C9.67589 25.125 10.0044 24.9889 10.2467 24.7467C10.4889 24.5044 10.625 24.1759 10.625 23.8333V22.5417H23.5417V23.8333C23.5417 24.1759 23.6777 24.5044 23.92 24.7467C24.1622 24.9889 24.4908 25.125 24.8333 25.125H26.125C26.4676 25.125 26.7961 24.9889 27.0383 24.7467C27.2806 24.5044 27.4167 24.1759 27.4167 23.8333V13.5L24.73 5.74999ZM18.2717 1.87499C18.0004 1.09999 17.2642 0.583328 16.4375 0.583328H4.81249C3.98582 0.583328 3.24957 1.09999 2.97832 1.87499L0.291656 9.62499V19.9583C0.291656 20.3009 0.427742 20.6294 0.669977 20.8717C0.912211 21.1139 1.24075 21.25 1.58332 21.25H2.87499C3.21756 21.25 3.5461 21.1139 3.78834 20.8717C4.03057 20.6294 4.16666 20.3009 4.16666 19.9583V14.6754C3.92803 14.5902 3.70858 14.4587 3.5209 14.2884C3.33322 14.1182 3.18101 13.9125 3.073 13.6833C2.96499 13.4541 2.90331 13.2058 2.89149 12.9527C2.87968 12.6996 2.91797 12.4466 3.00416 12.2083C3.28832 11.4333 3.99874 10.9167 4.81249 10.9167H4.90291L5.80707 8.33333H2.87499L4.81249 2.52083H18.4912L18.2717 1.87499Z" fill="#FE7058"/>
</svg>
