<svg width="13" height="7" viewBox="0 0 13 7" fill="none" xmlns="http://www.w3.org/2000/svg">
<path d="M12.2359 0.267679C12.0667 0.0962844 11.8373 0 11.598 0C11.3588 0 11.1294 0.0962844 10.9602 0.267679L6.49455 4.7932L2.02889 0.267679C1.85874 0.101142 1.63086 0.00899045 1.39431 0.0110735C1.15777 0.0131565 0.9315 0.109307 0.764234 0.278816C0.596967 0.448325 0.50209 0.677629 0.500034 0.917342C0.497978 1.15705 0.58891 1.388 0.753245 1.56042L5.85673 6.73232C6.02591 6.90372 6.25533 7 6.49455 7C6.73377 7 6.9632 6.90372 7.13238 6.73232L12.2359 1.56042C12.405 1.38898 12.5 1.15648 12.5 0.914052C12.5 0.671626 12.405 0.439126 12.2359 0.267679Z" fill="#94A3B8"/>
</svg>
