<svg width="32" height="36" viewBox="0 0 32 36" fill="none" xmlns="http://www.w3.org/2000/svg">
<path fill-rule="evenodd" clip-rule="evenodd" d="M7.00004 3.5C7.00004 3.063 11.516 0 16 0C20.484 0 25 3.063 25 3.5C25 5.06 24.834 5.984 24.694 6.487C24.601 6.817 24.292 7 23.949 7H8.05104C7.70804 7 7.39904 6.817 7.30604 6.487C7.16604 5.984 7.00004 5.06 7.00004 3.5ZM14.5 3C14.2348 3 13.9805 3.10536 13.7929 3.29289C13.6054 3.48043 13.5 3.73478 13.5 4C13.5 4.26522 13.6054 4.51957 13.7929 4.70711C13.9805 4.89464 14.2348 5 14.5 5H17.5C17.7653 5 18.0196 4.89464 18.2071 4.70711C18.3947 4.51957 18.5 4.26522 18.5 4C18.5 3.73478 18.3947 3.48043 18.2071 3.29289C18.0196 3.10536 17.7653 3 17.5 3H14.5ZM8.03804 13.218C4.70804 12.188 5.54804 10.348 6.81804 9H25.46C26.476 10.298 27.021 12.049 23.95 13.097C23.9834 13.3937 24 13.6947 24 14C23.9996 15.0833 23.7792 16.1552 23.3521 17.1507C22.925 18.1462 22.3003 19.0447 21.5156 19.7915C20.7309 20.5384 19.8028 21.1181 18.7874 21.4955C17.772 21.8729 16.6905 22.0402 15.6086 21.9872C14.5266 21.9342 13.4667 21.662 12.493 21.1871C11.5194 20.7123 10.6524 20.0446 9.94447 19.2246C9.23658 18.4047 8.70259 17.4495 8.37488 16.4169C8.04718 15.3844 7.93258 14.2961 8.03804 13.218ZM15.728 14C18.37 14 20.418 13.86 21.988 13.616C21.996 13.7427 22 13.8707 22 14C21.9993 14.8007 21.8383 15.5932 21.5266 16.3308C21.2148 17.0684 20.7585 17.736 20.1847 18.2945C19.6109 18.853 18.931 19.291 18.1853 19.5826C17.4395 19.8742 16.643 20.0136 15.8425 19.9926C15.042 19.9716 14.2539 19.7906 13.5244 19.4602C12.795 19.1298 12.1391 18.6567 11.5954 18.0689C11.0517 17.4811 10.6311 16.7904 10.3585 16.0374C10.0859 15.2845 9.96671 14.4847 10.008 13.685C11.471 13.887 13.346 14 15.728 14ZM24.417 28.6C23.5126 27.1887 22.2676 26.0276 20.7967 25.2237C19.3258 24.4199 17.6763 23.999 16 24C14.3231 23.9987 12.6728 24.4196 11.2013 25.2239C9.72984 26.0281 8.48447 27.1899 7.58004 28.602C7.24362 28.0856 6.72831 27.7117 6.13304 27.552L4.20104 27.035C3.56067 26.8633 2.87834 26.953 2.30412 27.2844C1.72989 27.6158 1.31081 28.1617 1.13904 28.802L0.363036 31.7C0.278048 32.0171 0.256364 32.3479 0.299221 32.6734C0.342079 32.999 0.448639 33.3129 0.612816 33.5972C0.776993 33.8815 0.995571 34.1307 1.25607 34.3306C1.51657 34.5305 1.81388 34.6771 2.13104 34.762L4.06204 35.28C4.38689 35.367 4.72597 35.3876 5.05897 35.3405C5.39197 35.2935 5.71204 35.1797 6.00004 35.006C6.00083 35.2712 6.10695 35.5253 6.29505 35.7122C6.48315 35.8992 6.73782 36.0038 7.00304 36.003C7.26825 36.0022 7.52229 35.8961 7.70927 35.708C7.89624 35.5199 8.00083 35.2652 8.00004 35V34C8.00004 33.6187 8.02604 33.2443 8.07804 32.877L13.282 34.272C13.5236 34.789 13.9076 35.2265 14.3891 35.5329C14.8705 35.8394 15.4293 36.0022 16 36.0022C16.5707 36.0022 17.1296 35.8394 17.611 35.5329C18.0924 35.2265 18.4765 34.789 18.718 34.272L23.922 32.877C23.9734 33.2443 23.9994 33.6187 24 34V35C23.9987 35.2652 24.1028 35.5201 24.2894 35.7086C24.476 35.897 24.7298 36.0037 24.995 36.005C25.2603 36.0063 25.5151 35.9022 25.7036 35.7156C25.8921 35.529 25.9987 35.2752 26 35.01C26.56 35.346 27.252 35.463 27.933 35.28L29.865 34.763C30.1822 34.6781 30.4795 34.5315 30.74 34.3316C31.0005 34.1317 31.2191 33.8825 31.3833 33.5982C31.5474 33.3139 31.654 33 31.6969 32.6744C31.7397 32.3489 31.718 32.0181 31.633 31.701L30.856 28.803C30.6843 28.1627 30.2652 27.6168 29.691 27.2854C29.1167 26.954 28.4344 26.8643 27.794 27.036L25.862 27.553C25.2681 27.7121 24.7537 28.0855 24.417 28.6ZM8.60304 30.946C9.14354 29.6399 10.0201 28.5 11.1436 27.6422C12.2671 26.7844 13.5976 26.2392 15 26.062V30.171C14.5516 30.3295 14.1473 30.5923 13.8204 30.9378C13.4935 31.2832 13.2535 31.7015 13.12 32.158L8.60304 30.946ZM23.397 30.946C22.8565 29.6399 21.98 28.5 20.8565 27.6422C19.733 26.7844 18.4024 26.2392 17 26.062V30.171C17.904 30.491 18.61 31.231 18.88 32.158L23.397 30.946ZM16 34C16.2653 34 16.5196 33.8946 16.7071 33.7071C16.8947 33.5196 17 33.2652 17 33C17 32.7348 16.8947 32.4804 16.7071 32.2929C16.5196 32.1054 16.2653 32 16 32C15.7348 32 15.4805 32.1054 15.2929 32.2929C15.1054 32.4804 15 32.7348 15 33C15 33.2652 15.1054 33.5196 15.2929 33.7071C15.4805 33.8946 15.7348 34 16 34Z" fill="#264A6C"/>
</svg>
