<svg width="17" height="17" viewBox="0 0 17 17" fill="none" xmlns="http://www.w3.org/2000/svg">
<path d="M8.79684 8.8006C8.35264 9.24481 8.10309 9.84727 8.10309 10.4755C8.10309 11.1037 8.35264 11.7061 8.79684 12.1503C9.24104 12.5945 9.84351 12.8441 10.4717 12.8441C11.0999 12.8441 11.7024 12.5945 12.1466 12.1503M12.6108 9.45034C12.3741 8.95585 11.9731 8.5588 11.4763 8.32692" stroke="white" stroke-width="2" stroke-linecap="round" stroke-linejoin="round"/>
<path d="M8.89473 12.4474V16L10.4737 14.8158L12.0526 16V12.4474M6.52631 13.6316H2.57894C2.16018 13.6316 1.75857 13.4652 1.46246 13.1691C1.16635 12.873 0.999992 12.4714 0.999992 12.0526V4.15789C0.999992 3.28947 1.71052 2.57895 2.57894 2.57895M5.73683 2.57895H13.6316C14.0503 2.57895 14.4519 2.7453 14.7481 3.04141C15.0442 3.33752 15.2105 3.73913 15.2105 4.15789V12.0526M3.36841 5.73684H5.73683M8.89473 5.73684H12.8421M3.36841 8.10526H5.73683M3.36841 10.4737H4.94736M0.999992 1L15.2105 15.2105" stroke="white" stroke-width="2" stroke-linecap="round" stroke-linejoin="round"/>
</svg>
