<svg width="15" height="18" viewBox="0 0 15 18" fill="none" xmlns="http://www.w3.org/2000/svg">
<path d="M4.729 13.7503C6.1643 12.2034 8.81955 12.1306 10.2707 13.7503M9.03567 9.00033C9.03567 9.87512 8.34613 10.5837 7.4943 10.5837C6.64325 10.5837 5.95292 9.87512 5.95292 9.00033C5.95292 8.12553 6.64325 7.41699 7.4943 7.41699C8.34534 7.41699 9.03646 8.12553 9.03646 9.00033" stroke="#9EACBF" stroke-width="1.5" stroke-linecap="round" stroke-linejoin="round"/>
<path d="M5.52075 2.66846C3.42759 2.67637 2.30738 2.74921 1.58221 3.43637C0.770752 4.20508 0.770752 5.44246 0.770752 7.91721V11.6673C0.770752 14.1421 0.770752 15.3802 1.58221 16.1482C2.39367 16.9177 3.69992 16.9177 6.31242 16.9177H8.68742C11.2999 16.9177 12.6062 16.9177 13.4176 16.149C14.2291 15.3795 14.2291 14.1421 14.2291 11.6681V7.91721C14.2291 5.44246 14.2291 4.20508 13.4176 3.43637C12.6925 2.74921 11.573 2.67637 9.47909 2.66846" stroke="#9EACBF" stroke-width="1.5" stroke-linecap="round" stroke-linejoin="round"/>
<path d="M5.73612 2.3755C5.81212 2.04695 5.85012 1.88229 5.92296 1.7485C6.01351 1.5893 6.13671 1.45107 6.28448 1.34287C6.43224 1.23467 6.60123 1.15896 6.78033 1.1207C6.94104 1.0835 7.12787 1.0835 7.49996 1.0835C7.87204 1.0835 8.05887 1.0835 8.21958 1.1207C8.39869 1.15896 8.56767 1.23467 8.71544 1.34287C8.86321 1.45107 8.98641 1.5893 9.07696 1.7485C9.14979 1.88308 9.18779 2.04695 9.26379 2.3755L9.3295 2.6605C9.46408 3.24237 9.53137 3.5337 9.43004 3.75775C9.36098 3.90645 9.24869 4.03087 9.10783 4.11479C8.88537 4.25016 8.55446 4.25016 7.89421 4.25016H7.10571C6.44546 4.25016 6.11454 4.25016 5.89208 4.11558C5.75111 4.03146 5.63881 3.90674 5.56987 3.75775C5.46854 3.5337 5.53583 3.24316 5.67042 2.6605L5.73612 2.3755Z" stroke="#9EACBF" stroke-width="1.5" stroke-linecap="round" stroke-linejoin="round"/>
</svg>
