<svg width="17" height="18" viewBox="0 0 17 18" fill="none" xmlns="http://www.w3.org/2000/svg">
<path d="M8.69825 8.20203C8.16713 8.19644 7.64953 8.03384 7.21063 7.7347C6.77174 7.43555 6.43115 7.01325 6.23176 6.52094C6.03238 6.02864 5.9831 5.48835 6.09013 4.9681C6.19717 4.44784 6.45574 3.97089 6.83328 3.59728C7.21081 3.22367 7.69045 2.97012 8.2118 2.86853C8.73314 2.76695 9.27288 2.82188 9.76307 3.02642C10.2533 3.23095 10.672 3.57594 10.9665 4.01794C11.261 4.45995 11.4182 4.97922 11.4182 5.51037C11.4133 6.22761 11.1242 6.91364 10.6143 7.41815C10.1045 7.92267 9.4155 8.20455 8.69825 8.20203ZM8.69825 3.76314C8.35394 3.76873 8.01896 3.87593 7.73538 4.07128C7.45181 4.26663 7.23227 4.54142 7.10437 4.86113C6.97646 5.18085 6.94587 5.53123 7.01646 5.86827C7.08704 6.20531 7.25564 6.51398 7.50108 6.75551C7.74653 6.99703 8.05787 7.16065 8.396 7.2258C8.73413 7.29095 9.08398 7.25474 9.40159 7.1217C9.71921 6.98867 9.99043 6.76474 10.1812 6.47806C10.372 6.19138 10.4738 5.85472 10.4738 5.51037C10.4688 5.04361 10.2792 4.5978 9.94654 4.2704C9.61382 3.94299 9.16503 3.76062 8.69825 3.76314Z" fill="#94A3B8"/>
<path d="M8.69827 8.20203C8.16715 8.19644 7.64956 8.03384 7.21066 7.7347C6.77176 7.43555 6.43117 7.01325 6.23178 6.52094C6.0324 6.02864 5.98312 5.48835 6.09015 4.9681C6.19719 4.44784 6.45576 3.97089 6.8333 3.59728C7.21084 3.22367 7.69047 2.97012 8.21182 2.86853C8.73316 2.76695 9.27291 2.82188 9.76309 3.02642C10.2533 3.23095 10.672 3.57594 10.9665 4.01794C11.2611 4.45995 11.4182 4.97922 11.4183 5.51037C11.4133 6.22761 11.1242 6.91364 10.6144 7.41815C10.1045 7.92267 9.41553 8.20455 8.69827 8.20203ZM8.69827 3.76314C8.35396 3.76873 8.01898 3.87593 7.7354 4.07128C7.45183 4.26663 7.2323 4.54142 7.10439 4.86113C6.97648 5.18085 6.94589 5.53123 7.01648 5.86827C7.08706 6.20531 7.25566 6.51398 7.5011 6.75551C7.74655 6.99703 8.05789 7.16065 8.39602 7.2258C8.73415 7.29095 9.084 7.25474 9.40161 7.1217C9.71923 6.98867 9.99045 6.76474 10.1812 6.47806C10.372 6.19138 10.4738 5.85472 10.4738 5.51037C10.4688 5.04361 10.2793 4.5978 9.94656 4.2704C9.61385 3.94299 9.16505 3.76062 8.69827 3.76314ZM10.3463 8.83481C8.2518 8.47034 6.09555 8.80207 4.20743 9.77926C4.0734 9.85367 3.96242 9.96352 3.88663 10.0968C3.81084 10.23 3.77316 10.3816 3.77771 10.5348V12.2159C3.77771 12.3412 3.82746 12.4613 3.91602 12.5498C4.00458 12.6384 4.12469 12.6881 4.24993 12.6881C4.37518 12.6881 4.49529 12.6384 4.58385 12.5498C4.6724 12.4613 4.72216 12.3412 4.72216 12.2159V10.5962C6.473 9.7177 8.46404 9.43895 10.3888 9.80287L10.3463 8.83481Z" fill="#94A3B8"/>
<path d="M15.5834 10.8889H12.4196V10.19C12.4196 10.0648 12.3698 9.94464 12.2812 9.85608C12.1927 9.76752 12.0726 9.71777 11.9473 9.71777C11.8221 9.71777 11.702 9.76752 11.6134 9.85608C11.5249 9.94464 11.4751 10.0648 11.4751 10.19V10.8889H8.02789C7.90265 10.8889 7.78253 10.9386 7.69397 11.0272C7.60542 11.1158 7.55566 11.2359 7.55566 11.3611V16.0833C7.55566 16.2086 7.60542 16.3287 7.69397 16.4172C7.78253 16.5058 7.90265 16.5556 8.02789 16.5556H15.5834C15.7087 16.5556 15.8288 16.5058 15.9174 16.4172C16.0059 16.3287 16.0557 16.2086 16.0557 16.0833V11.3611C16.0557 11.2359 16.0059 11.1158 15.9174 11.0272C15.8288 10.9386 15.7087 10.8889 15.5834 10.8889ZM15.1112 15.6111H8.50011V11.8333H11.4751V12.0269C11.4751 12.1522 11.5249 12.2723 11.6134 12.3609C11.702 12.4494 11.8221 12.4992 11.9473 12.4992C12.0726 12.4992 12.1927 12.4494 12.2812 12.3609C12.3698 12.2723 12.4196 12.1522 12.4196 12.0269V11.8333H15.1112V15.6111Z" fill="#94A3B8"/>
<path d="M10.2991 13.4484H13.1135V14.1096H10.2991V13.4484ZM5.11878 6.28011C3.81141 6.30198 2.5267 6.62518 1.36461 7.22455C1.23823 7.29131 1.13236 7.39116 1.05834 7.51343C0.984311 7.6357 0.944906 7.77579 0.944336 7.91872V9.38261C0.944336 9.50785 0.994088 9.62796 1.08265 9.71652C1.17121 9.80508 1.29132 9.85483 1.41656 9.85483C1.5418 9.85483 1.66191 9.80508 1.75047 9.71652C1.83903 9.62796 1.88878 9.50785 1.88878 9.38261V8.01317C2.99912 7.46049 4.22843 7.18965 5.46822 7.22455C5.30614 6.92854 5.1884 6.61033 5.11878 6.28011ZM15.6352 7.21983C14.5929 6.6731 13.4474 6.35134 12.2729 6.27539C12.2035 6.60499 12.0875 6.92301 11.9282 7.21983C13.0347 7.24647 14.1215 7.51738 15.111 8.01317V9.38261C15.111 9.50785 15.1608 9.62796 15.2493 9.71652C15.3379 9.80508 15.458 9.85483 15.5832 9.85483C15.7085 9.85483 15.8286 9.80508 15.9171 9.71652C16.0057 9.62796 16.0554 9.50785 16.0554 9.38261V7.91872C16.0557 7.77499 16.0167 7.63391 15.9427 7.51073C15.8686 7.38756 15.7623 7.28696 15.6352 7.21983ZM5.03378 5.51039V5.194C4.66385 5.14449 4.32726 4.95422 4.09409 4.66279C3.86092 4.37137 3.74913 4.00124 3.78198 3.62946C3.81484 3.25768 3.98982 2.91289 4.27049 2.66688C4.55116 2.42087 4.9159 2.29258 5.28878 2.30872C5.67662 2.30802 6.04941 2.45883 6.32767 2.729C6.57329 2.52666 6.84291 2.35537 7.13045 2.219C6.80915 1.84956 6.38345 1.58614 5.90946 1.46348C5.43547 1.34081 4.93543 1.36464 4.47526 1.53184C4.01508 1.69904 3.61637 2.00175 3.33167 2.40007C3.04697 2.7984 2.88965 3.27364 2.88045 3.76317C2.89036 4.3623 3.12326 4.93622 3.53367 5.37283C3.94408 5.80943 4.50251 6.07736 5.09989 6.12428C5.05978 5.922 5.03766 5.71657 5.03378 5.51039ZM11.6968 1.36428C11.3723 1.36435 11.0511 1.42912 10.7519 1.55479C10.4527 1.68047 10.1816 1.86453 9.95434 2.09622C10.2733 2.2126 10.5751 2.37144 10.8516 2.56844C11.072 2.41541 11.3299 2.32508 11.5976 2.30707C11.8654 2.28907 12.133 2.34407 12.372 2.46622C12.6109 2.58836 12.8123 2.77307 12.9545 3.00064C13.0967 3.22822 13.1745 3.49013 13.1796 3.75844C13.1766 4.03405 13.0957 4.30318 12.9461 4.53467C12.7965 4.76617 12.5844 4.95056 12.3343 5.0665C12.3535 5.2121 12.363 5.35881 12.3627 5.50567C12.3612 5.69547 12.3454 5.8849 12.3154 6.07233C12.8299 5.94008 13.2862 5.64147 13.6133 5.22297C13.9404 4.80448 14.12 4.28959 14.1241 3.75844C14.1178 3.11967 13.859 2.50932 13.4043 2.06073C12.9495 1.61213 12.3356 1.36175 11.6968 1.36428Z" fill="#94A3B8"/>
</svg>
