<svg width="18" height="18" viewBox="0 0 18 18" fill="none" xmlns="http://www.w3.org/2000/svg">
<path d="M8.21505 8.34497C7.52282 8.34497 6.84613 8.1397 6.27056 7.75512C5.69498 7.37053 5.24638 6.82391 4.98147 6.18436C4.71657 5.54482 4.64725 4.84109 4.7823 4.16216C4.91735 3.48322 5.25069 2.85958 5.74018 2.3701C6.22966 1.88061 6.8533 1.54727 7.53223 1.41222C8.21117 1.27718 8.9149 1.34649 9.55444 1.61139C10.194 1.8763 10.7406 2.3249 11.1252 2.90048C11.5098 3.47605 11.7151 4.15274 11.7151 4.84497C11.7151 5.77323 11.3463 6.66347 10.6899 7.31985C10.0335 7.97622 9.14331 8.34497 8.21505 8.34497ZM8.21505 2.38497C7.7206 2.38497 7.23725 2.53159 6.82613 2.8063C6.415 3.081 6.09457 3.47145 5.90535 3.92826C5.71613 4.38508 5.66662 4.88775 5.76309 5.3727C5.85955 5.85765 6.09765 6.30311 6.44728 6.65274C6.79692 7.00237 7.24237 7.24047 7.72733 7.33694C8.21228 7.4334 8.71494 7.38389 9.17176 7.19467C9.62857 7.00545 10.019 6.68502 10.2937 6.2739C10.5684 5.86278 10.7151 5.37943 10.7151 4.88497C10.7151 4.55667 10.6504 4.23158 10.5247 3.92826C10.3991 3.62495 10.215 3.34935 9.98282 3.11721C9.75067 2.88506 9.47507 2.70091 9.17176 2.57527C8.86845 2.44964 8.54336 2.38497 8.21505 2.38497ZM11.0001 8.94997C8.29426 8.34111 5.46356 8.63437 2.94005 9.78497C2.593 9.95075 2.30018 10.2117 2.0957 10.5375C1.89122 10.8632 1.78349 11.2404 1.78505 11.625V14.6C1.78505 14.6656 1.79798 14.7307 1.82311 14.7913C1.84824 14.852 1.88507 14.9071 1.9315 14.9535C1.97793 15 2.03305 15.0368 2.09371 15.0619C2.15437 15.087 2.21939 15.1 2.28505 15.1C2.35071 15.1 2.41573 15.087 2.47639 15.0619C2.53706 15.0368 2.59218 15 2.6386 14.9535C2.68503 14.9071 2.72186 14.852 2.74699 14.7913C2.77212 14.7307 2.78505 14.6656 2.78505 14.6V11.625C2.7807 11.4303 2.83326 11.2386 2.93629 11.0734C3.03932 10.9082 3.18834 10.7767 3.36505 10.695C4.88519 9.99307 6.54071 9.63296 8.21505 9.63997C9.15321 9.63878 10.0882 9.74956 11.0001 9.96997V8.94997ZM11.0701 13.705H14.1401V14.405H11.0701V13.705Z" fill="#94A3B8"/>
<path d="M16.585 10.735H14V11.735H16.085V15.92H9V11.735H12.15V11.945C12.15 12.0776 12.2027 12.2048 12.2964 12.2986C12.3902 12.3923 12.5174 12.445 12.65 12.445C12.7826 12.445 12.9098 12.3923 13.0036 12.2986C13.0973 12.2048 13.15 12.0776 13.15 11.945V10C13.15 9.86739 13.0973 9.74021 13.0036 9.64645C12.9098 9.55268 12.7826 9.5 12.65 9.5C12.5174 9.5 12.3902 9.55268 12.2964 9.64645C12.2027 9.74021 12.15 9.86739 12.15 10V10.735H8.5C8.36739 10.735 8.24021 10.7877 8.14645 10.8814C8.05268 10.9752 8 11.1024 8 11.235V16.42C8 16.5526 8.05268 16.6798 8.14645 16.7736C8.24021 16.8673 8.36739 16.92 8.5 16.92H16.585C16.7176 16.92 16.8448 16.8673 16.9386 16.7736C17.0323 16.6798 17.085 16.5526 17.085 16.42V11.235C17.085 11.1024 17.0323 10.9752 16.9386 10.8814C16.8448 10.7877 16.7176 10.735 16.585 10.735Z" fill="#94A3B8"/>
</svg>
