<svg width="36" height="37" viewBox="0 0 36 37" fill="none" xmlns="http://www.w3.org/2000/svg">
<rect y="0.342773" width="36" height="36" rx="8" fill="black"/>
<path d="M11.8125 9C11.0666 9 10.3512 9.29632 9.82376 9.82376C9.29632 10.3512 9 11.0666 9 11.8125V21.9375C9 22.6834 9.29632 23.3988 9.82376 23.9262C10.3512 24.4537 11.0666 24.75 11.8125 24.75H16.425C16.2413 24.3903 16.0932 24.0135 15.9829 23.625H11.8125C11.3649 23.625 10.9357 23.4472 10.6193 23.1307C10.3028 22.8143 10.125 22.3851 10.125 21.9375V11.8125C10.125 11.3649 10.3028 10.9357 10.6193 10.6193C10.9357 10.3028 11.3649 10.125 11.8125 10.125H21.9375C22.3851 10.125 22.8143 10.3028 23.1307 10.6193C23.4472 10.9357 23.625 11.3649 23.625 11.8125V15.9829C24.018 16.0946 24.393 16.242 24.75 16.425V11.8125C24.75 11.0666 24.4537 10.3512 23.9262 9.82376C23.3988 9.29632 22.6834 9 21.9375 9H11.8125ZM15.9829 20.25C16.0946 19.857 16.242 19.482 16.425 19.125H11.8125C11.6633 19.125 11.5202 19.1843 11.4148 19.2898C11.3093 19.3952 11.25 19.5383 11.25 19.6875C11.25 19.8367 11.3093 19.9798 11.4148 20.0852C11.5202 20.1907 11.6633 20.25 11.8125 20.25H15.9829ZM15.1875 22.5C15.3367 22.5 15.4798 22.4407 15.5852 22.3352C15.6907 22.2298 15.75 22.0867 15.75 21.9375C15.75 21.7883 15.6907 21.6452 15.5852 21.5398C15.4798 21.4343 15.3367 21.375 15.1875 21.375H11.8125C11.6633 21.375 11.5202 21.4343 11.4148 21.5398C11.3093 21.6452 11.25 21.7883 11.25 21.9375C11.25 22.0867 11.3093 22.2298 11.4148 22.3352C11.5202 22.4407 11.6633 22.5 11.8125 22.5H15.1875ZM14.625 11.25C14.7338 11.25 14.8403 11.2815 14.9316 11.3409C15.0228 11.4002 15.0949 11.4847 15.1391 11.5841L17.3891 16.6466C17.4191 16.7141 17.4355 16.7869 17.4374 16.8608C17.4393 16.9346 17.4266 17.0081 17.4 17.0771C17.3735 17.146 17.3336 17.209 17.2827 17.2626C17.2318 17.3161 17.1709 17.3591 17.1034 17.3891C17.0359 17.4191 16.9631 17.4355 16.8892 17.4374C16.8154 17.4393 16.7419 17.4266 16.6729 17.4C16.604 17.3735 16.541 17.3336 16.4874 17.2827C16.4339 17.2318 16.3909 17.1709 16.3609 17.1034L15.759 15.75H13.491L12.8891 17.1034C12.8286 17.2397 12.7163 17.3464 12.5771 17.4C12.4378 17.4536 12.283 17.4497 12.1466 17.3891C12.0103 17.3286 11.9036 17.2163 11.85 17.0771C11.7964 16.9378 11.8003 16.783 11.8609 16.6466L14.1109 11.5841C14.1551 11.4847 14.2272 11.4002 14.3184 11.3409C14.4097 11.2815 14.5162 11.25 14.625 11.25ZM15.2595 14.625L14.625 13.1974L13.9905 14.625H15.2595ZM20.8125 11.8125C20.8125 11.6633 20.7532 11.5202 20.6477 11.4148C20.5423 11.3093 20.3992 11.25 20.25 11.25C20.1008 11.25 19.9577 11.3093 19.8523 11.4148C19.7468 11.5202 19.6875 11.6633 19.6875 11.8125V12.9375H18.5625C18.4133 12.9375 18.2702 12.9968 18.1648 13.1023C18.0593 13.2077 18 13.3508 18 13.5C18 13.6492 18.0593 13.7923 18.1648 13.8977C18.2702 14.0032 18.4133 14.0625 18.5625 14.0625H19.6875V15.1875C19.6875 15.3367 19.7468 15.4798 19.8523 15.5852C19.9577 15.6907 20.1008 15.75 20.25 15.75C20.3992 15.75 20.5423 15.6907 20.6477 15.5852C20.7532 15.4798 20.8125 15.3367 20.8125 15.1875V14.0625H21.9375C22.0867 14.0625 22.2298 14.0032 22.3352 13.8977C22.4407 13.7923 22.5 13.6492 22.5 13.5C22.5 13.3508 22.4407 13.2077 22.3352 13.1023C22.2298 12.9968 22.0867 12.9375 21.9375 12.9375H20.8125V11.8125ZM27 21.9375C27 23.2802 26.4666 24.5678 25.5172 25.5172C24.5678 26.4666 23.2802 27 21.9375 27C20.5948 27 19.3072 26.4666 18.3578 25.5172C17.4084 24.5678 16.875 23.2802 16.875 21.9375C16.875 20.5948 17.4084 19.3072 18.3578 18.3578C19.3072 17.4084 20.5948 16.875 21.9375 16.875C23.2802 16.875 24.5678 17.4084 25.5172 18.3578C26.4666 19.3072 27 20.5948 27 21.9375ZM22.5 19.6875C22.5 19.5383 22.4407 19.3952 22.3352 19.2898C22.2298 19.1843 22.0867 19.125 21.9375 19.125C21.7883 19.125 21.6452 19.1843 21.5398 19.2898C21.4343 19.3952 21.375 19.5383 21.375 19.6875V21.375H19.6875C19.5383 21.375 19.3952 21.4343 19.2898 21.5398C19.1843 21.6452 19.125 21.7883 19.125 21.9375C19.125 22.0867 19.1843 22.2298 19.2898 22.3352C19.3952 22.4407 19.5383 22.5 19.6875 22.5H21.375V24.1875C21.375 24.3367 21.4343 24.4798 21.5398 24.5852C21.6452 24.6907 21.7883 24.75 21.9375 24.75C22.0867 24.75 22.2298 24.6907 22.3352 24.5852C22.4407 24.4798 22.5 24.3367 22.5 24.1875V22.5H24.1875C24.3367 22.5 24.4798 22.4407 24.5852 22.3352C24.6907 22.2298 24.75 22.0867 24.75 21.9375C24.75 21.7883 24.6907 21.6452 24.5852 21.5398C24.4798 21.4343 24.3367 21.375 24.1875 21.375H22.5V19.6875Z" fill="white"/>
</svg>
