<svg width="36" height="37" viewBox="0 0 36 37" fill="none" xmlns="http://www.w3.org/2000/svg">
<rect y="0.342773" width="36" height="36" rx="8" fill="black"/>
<path d="M22.1045 14.2285L22.8955 15.0195L16.3125 21.6025L13.1045 18.3945L13.8955 17.6035L16.3125 20.0205L22.1045 14.2285ZM18 8.99902C18.8262 8.99902 19.623 9.10449 20.3906 9.31543C21.1582 9.52637 21.876 9.82812 22.5439 10.2207C23.2119 10.6133 23.8184 11.082 24.3633 11.627C24.9082 12.1719 25.377 12.7812 25.7695 13.4551C26.1621 14.1289 26.4639 14.8467 26.6748 15.6084C26.8857 16.3701 26.9941 17.167 27 17.999C27 18.8252 26.8945 19.6221 26.6836 20.3896C26.4727 21.1572 26.1709 21.875 25.7783 22.543C25.3857 23.2109 24.917 23.8174 24.3721 24.3623C23.8271 24.9072 23.2178 25.376 22.5439 25.7686C21.8701 26.1611 21.1523 26.4629 20.3906 26.6738C19.6289 26.8848 18.832 26.9932 18 26.999C17.1738 26.999 16.377 26.8936 15.6094 26.6826C14.8418 26.4717 14.124 26.1699 13.4561 25.7773C12.7881 25.3848 12.1816 24.916 11.6367 24.3711C11.0918 23.8262 10.623 23.2168 10.2305 22.543C9.83789 21.8691 9.53613 21.1543 9.3252 20.3984C9.11426 19.6426 9.00586 18.8428 9 17.999C9 17.1729 9.10547 16.376 9.31641 15.6084C9.52734 14.8408 9.8291 14.123 10.2217 13.4551C10.6143 12.7871 11.083 12.1807 11.6279 11.6357C12.1729 11.0908 12.7822 10.6221 13.4561 10.2295C14.1299 9.83691 14.8447 9.53516 15.6006 9.32422C16.3564 9.11328 17.1562 9.00488 18 8.99902ZM18 25.874C18.7207 25.874 19.415 25.7803 20.083 25.5928C20.751 25.4053 21.3779 25.1416 21.9639 24.8018C22.5498 24.4619 23.083 24.0488 23.5635 23.5625C24.0439 23.0762 24.4541 22.5459 24.7939 21.9717C25.1338 21.3975 25.4004 20.7705 25.5938 20.0908C25.7871 19.4111 25.8809 18.7139 25.875 17.999C25.875 17.2783 25.7812 16.584 25.5938 15.916C25.4062 15.248 25.1426 14.6211 24.8027 14.0352C24.4629 13.4492 24.0498 12.916 23.5635 12.4355C23.0771 11.9551 22.5469 11.5449 21.9727 11.2051C21.3984 10.8652 20.7715 10.5986 20.0918 10.4053C19.4121 10.2119 18.7148 10.1182 18 10.124C17.2793 10.124 16.585 10.2178 15.917 10.4053C15.249 10.5928 14.6221 10.8564 14.0361 11.1963C13.4502 11.5361 12.917 11.9492 12.4365 12.4355C11.9561 12.9219 11.5459 13.4521 11.2061 14.0264C10.8662 14.6006 10.5996 15.2275 10.4062 15.9072C10.2129 16.5869 10.1191 17.2842 10.125 17.999C10.125 18.7197 10.2188 19.4141 10.4062 20.082C10.5938 20.75 10.8574 21.377 11.1973 21.9629C11.5371 22.5488 11.9502 23.082 12.4365 23.5625C12.9229 24.043 13.4531 24.4531 14.0273 24.793C14.6016 25.1328 15.2285 25.3994 15.9082 25.5928C16.5879 25.7861 17.2852 25.8799 18 25.874Z" fill="white"/>
</svg>
