<svg width="17" height="16" viewBox="0 0 17 16" fill="none" xmlns="http://www.w3.org/2000/svg">
<path d="M12.0625 0.28125V1.46875H14.178L12.1741 3.49106C11.4579 2.95022 10.585 2.65719 9.68751 2.65625C8.5772 2.65625 7.54051 3.09562 6.75557 3.88116C6.36758 4.26447 6.05954 4.72099 5.84932 5.22426C5.6391 5.72752 5.53088 6.26751 5.53094 6.81292C5.53099 7.35833 5.63932 7.8983 5.84964 8.40152C6.05997 8.90474 6.36809 9.3612 6.75617 9.74444C7.27273 10.261 7.88785 10.6321 8.57423 10.8203C8.64192 10.7687 8.71792 10.7146 8.77848 10.6541C9.02735 10.4009 9.20617 10.0875 9.29742 9.74444C8.65101 9.66464 8.05 9.37051 7.59038 8.90903C7.02989 8.34912 6.71876 7.60575 6.71876 6.8125C6.71876 6.01925 7.03048 5.27706 7.59157 4.71656C8.15089 4.15428 8.89426 3.84375 9.68751 3.84375C10.4808 3.84375 11.2235 4.15547 11.7834 4.71656C12.0605 4.99071 12.2803 5.31716 12.4301 5.67696C12.58 6.03677 12.6568 6.42275 12.6563 6.8125C12.6563 7.32609 12.5108 7.80406 12.2668 8.24106C12.3238 8.54744 12.3594 8.86925 12.3594 9.1875C12.3594 9.48319 12.3344 9.77531 12.2852 10.0603C12.4039 9.96353 12.5096 9.85369 12.6194 9.74444C13.4044 8.95831 13.8438 7.92281 13.8438 6.8125C13.8438 5.90406 13.5445 5.04075 13.0089 4.32588L15.0313 2.32256V4.4375H16.2188V0.28125H12.0625ZM8.42579 5.17969C8.3581 5.23134 8.2821 5.28537 8.22154 5.34594C7.96504 5.60362 7.7976 5.91594 7.7026 6.25616C8.34979 6.33928 8.94057 6.62191 9.40963 7.09097C9.97073 7.65088 10.2824 8.39425 10.2824 9.18691C10.2824 9.97956 9.97073 10.7223 9.40963 11.2828C8.84913 11.8457 8.10576 12.1562 7.31251 12.1562C6.51926 12.1562 5.77648 11.8445 5.21657 11.2834C4.93932 11.0094 4.71936 10.683 4.56952 10.3232C4.41967 9.96335 4.34293 9.57729 4.34376 9.1875C4.34376 8.67391 4.48923 8.19594 4.73326 7.75894C4.67364 7.44693 4.64264 7.13014 4.64064 6.8125C4.64064 6.51681 4.66557 6.22469 4.71485 5.93969C4.5961 6.03647 4.49101 6.14631 4.38057 6.25616C3.59682 7.0405 3.15626 8.07719 3.15626 9.1875C3.15626 10.0959 3.45551 10.9592 3.99107 11.6741L2.99001 12.6758L1.80251 11.4883L0.94751 12.3231L2.13501 13.5106L0.94751 14.6981L1.80251 15.5531L2.99001 14.3656L4.17751 15.5531L5.01173 14.6981L3.82423 13.5106L4.82648 12.5095C5.54204 13.0512 6.41504 13.3442 7.31251 13.3438C8.42282 13.3438 9.45951 12.9044 10.2444 12.1188C11.0294 11.3345 11.4688 10.2978 11.4688 9.1875C11.4688 8.07719 11.0294 7.04169 10.2439 6.25556C9.72729 5.739 9.11217 5.36791 8.42579 5.17969Z" fill="#94A3B8"/>
</svg>
