<svg width="19" height="20" viewBox="0 0 19 20" fill="none" xmlns="http://www.w3.org/2000/svg">
<path d="M6.729 14.7503C8.1643 13.2034 10.8195 13.1306 12.2707 14.7503M11.0357 10.0003C11.0357 10.8751 10.3461 11.5837 9.4943 11.5837C8.64325 11.5837 7.95292 10.8751 7.95292 10.0003C7.95292 9.12553 8.64325 8.41699 9.4943 8.41699C10.3453 8.41699 11.0365 9.12553 11.0365 10.0003" stroke="#9EACBF" stroke-width="1.5" stroke-linecap="round" stroke-linejoin="round"/>
<path d="M7.52075 3.66846C5.42759 3.67637 4.30738 3.74921 3.58221 4.43637C2.77075 5.20508 2.77075 6.44246 2.77075 8.91721V12.6673C2.77075 15.1421 2.77075 16.3802 3.58221 17.1482C4.39367 17.9177 5.69992 17.9177 8.31242 17.9177H10.6874C13.2999 17.9177 14.6062 17.9177 15.4176 17.149C16.2291 16.3795 16.2291 15.1421 16.2291 12.6681V8.91721C16.2291 6.44246 16.2291 5.20508 15.4176 4.43637C14.6925 3.74921 13.573 3.67637 11.4791 3.66846" stroke="#9EACBF" stroke-width="1.5" stroke-linecap="round" stroke-linejoin="round"/>
<path d="M7.73612 3.3755C7.81212 3.04695 7.85012 2.88229 7.92296 2.7485C8.01351 2.5893 8.13671 2.45107 8.28448 2.34287C8.43224 2.23467 8.60123 2.15896 8.78033 2.1207C8.94104 2.0835 9.12787 2.0835 9.49996 2.0835C9.87204 2.0835 10.0589 2.0835 10.2196 2.1207C10.3987 2.15896 10.5677 2.23467 10.7154 2.34287C10.8632 2.45107 10.9864 2.5893 11.077 2.7485C11.1498 2.88308 11.1878 3.04695 11.2638 3.3755L11.3295 3.6605C11.4641 4.24237 11.5314 4.5337 11.43 4.75775C11.361 4.90645 11.2487 5.03087 11.1078 5.11479C10.8854 5.25016 10.5545 5.25016 9.89421 5.25016H9.10571C8.44546 5.25016 8.11454 5.25016 7.89208 5.11558C7.75111 5.03146 7.63881 4.90674 7.56987 4.75775C7.46854 4.5337 7.53583 4.24316 7.67042 3.6605L7.73612 3.3755Z" stroke="#9EACBF" stroke-width="1.5" stroke-linecap="round" stroke-linejoin="round"/>
</svg>
