<svg width="32" height="32" viewBox="0 0 32 32" fill="none" xmlns="http://www.w3.org/2000/svg">
<path d="M20.8333 30.5H6.33333C5.05145 30.5 3.82208 29.9908 2.91565 29.0843C2.00922 28.1779 1.5 26.9485 1.5 25.6667V24.0556H17.6111V27.2778C17.6111 28.1324 17.9506 28.9519 18.5549 29.5562C19.1592 30.1605 19.9787 30.5 20.8333 30.5ZM20.8333 30.5C21.6879 30.5 22.5075 30.1605 23.1118 29.5562C23.7161 28.9519 24.0556 28.1324 24.0556 27.2778V4.72222C24.0556 4.08493 24.2445 3.46194 24.5986 2.93205C24.9527 2.40216 25.4559 1.98916 26.0447 1.74528C26.6335 1.5014 27.2814 1.43759 27.9064 1.56192C28.5315 1.68625 29.1056 1.99313 29.5562 2.44377C30.0069 2.8944 30.3138 3.46855 30.4381 4.0936C30.5624 4.71865 30.4986 5.36653 30.2547 5.95531C30.0108 6.5441 29.5978 7.04734 29.068 7.4014C28.5381 7.75547 27.9151 7.94445 27.2778 7.94445H24.0556M27.2778 1.5H9.55556C8.27368 1.5 7.0443 2.00923 6.13787 2.91565C5.23145 3.82208 4.72222 5.05145 4.72222 6.33333V24.0556M11.1667 7.94445H17.6111M11.1667 14.3889H17.6111" stroke="#264A6C" stroke-width="2" stroke-linecap="round" stroke-linejoin="round"/>
</svg>
