<svg width="40" height="39" viewBox="0 0 40 39" fill="none" xmlns="http://www.w3.org/2000/svg">
<path d="M31.4999 31.6876L32.0212 29.0888C32.2949 27.7144 33.0299 26.4451 33.2924 25.0688C33.3487 24.7826 33.3762 24.4888 33.3749 24.1876C33.3742 23.5351 33.2372 22.8901 32.9728 22.2937C32.7084 21.6972 32.3224 21.1625 31.8396 20.7238C31.3567 20.2851 30.7876 19.952 30.1686 19.7459C29.5496 19.5397 28.8944 19.4651 28.2449 19.5267C27.5954 19.5883 26.9659 19.7848 26.3967 20.1036C25.8275 20.4224 25.3311 20.8565 24.9393 21.3782C24.5475 21.8999 24.269 22.4976 24.1214 23.1331C23.9738 23.7686 23.9606 24.4279 24.0824 25.0688C24.3449 26.4469 25.0799 27.7126 25.3556 29.0888L25.8749 31.6876M31.4999 31.6876H25.8749M31.4999 31.6876L36.1818 32.9363C36.9812 33.1142 37.696 33.5592 38.2083 34.198C38.7206 34.8368 38.9999 35.6312 39 36.4501C39 37.4438 38.1937 38.2501 37.2 38.2501H20.1749C19.6975 38.2501 19.2397 38.0604 18.9021 37.7229C18.5646 37.3853 18.3749 36.9275 18.3749 36.4501C18.3749 34.7626 19.5468 33.3019 21.193 32.9363L25.8749 31.6876M29.6249 13.875V12C29.6249 6.69751 29.6249 4.04438 27.9768 2.39813C26.3306 0.75 23.6774 0.75 18.3749 0.75H12.7499C7.44739 0.75 4.79426 0.75 3.14801 2.39813C1.49988 4.04438 1.49988 6.69751 1.49988 12V27.0001C1.49988 32.3026 1.49988 34.9557 3.14801 36.602C4.79426 38.2501 7.44739 38.2501 12.7499 38.2501" stroke="#264A6C" stroke-width="1.5" stroke-linecap="round" stroke-linejoin="round"/>
<path d="M10.875 13.2506C10.875 13.2506 12.0469 13.2506 13.2188 15.75C13.2188 15.75 16.9406 9.50063 20.25 8.25M9 23.25H16.5M9 28.875H16.5" stroke="#264A6C" stroke-width="1.5" stroke-linecap="round" stroke-linejoin="round"/>
</svg>
