<svg width="25" height="26" viewBox="0 0 25 26" fill="none" xmlns="http://www.w3.org/2000/svg">
<path d="M2.64995 2.85268V21.5989C2.64995 21.8239 2.82915 22.0064 3.04994 22.0064H8.12184C8.4401 22.0064 8.74532 22.1352 8.97036 22.3645C9.19539 22.5938 9.32182 22.9048 9.32182 23.229C9.32182 23.5533 9.19539 23.8642 8.97036 24.0935C8.74532 24.3228 8.4401 24.4516 8.12184 24.4516H3.04994C2.30735 24.4516 1.59518 24.151 1.07008 23.6161C0.544993 23.0811 0.25 22.3555 0.25 21.5989V2.85268C0.25 1.278 1.50438 0 3.04994 0H16.6497C18.1952 0 19.4496 1.278 19.4496 2.85268V15.4632C19.4496 15.7874 19.3232 16.0984 19.0982 16.3277C18.8731 16.557 18.5679 16.6858 18.2496 16.6858C17.9314 16.6858 17.6262 16.557 17.4011 16.3277C17.1761 16.0984 17.0497 15.7874 17.0497 15.4632V2.85268C17.0497 2.7446 17.0075 2.64095 16.9325 2.56452C16.8575 2.48809 16.7558 2.44516 16.6497 2.44516H3.04994C2.94386 2.44516 2.84212 2.48809 2.76711 2.56452C2.69209 2.64095 2.64995 2.7446 2.64995 2.85268ZM23.8879 18.399L16.5969 25.653C16.3705 25.8777 16.0663 26.0024 15.7503 26C15.4342 25.9975 15.1319 25.8681 14.9089 25.6399L11.8002 22.4612C11.5886 22.2291 11.4738 21.9223 11.4798 21.6056C11.4859 21.2888 11.6124 20.9869 11.8327 20.7633C12.053 20.5397 12.3498 20.412 12.6607 20.407C12.9716 20.402 13.2723 20.5202 13.4993 20.7366L15.7697 23.0595L22.2112 16.6499C22.439 16.4234 22.7459 16.2983 23.0643 16.3023C23.2219 16.3043 23.3776 16.3378 23.5225 16.4011C23.6674 16.4644 23.7986 16.5561 23.9087 16.6711C24.0188 16.786 24.1056 16.922 24.1642 17.0711C24.2227 17.2202 24.2518 17.3796 24.2499 17.5403C24.248 17.7009 24.215 17.8595 24.1529 18.0071C24.0908 18.1547 24.0008 18.2885 23.8879 18.4006M6.24988 6.52042H13.4497C13.768 6.52042 14.0732 6.64923 14.2982 6.87851C14.5233 7.10779 14.6497 7.41875 14.6497 7.743C14.6497 8.06725 14.5233 8.37822 14.2982 8.6075C14.0732 8.83677 13.768 8.96558 13.4497 8.96558H6.24988C5.93163 8.96558 5.62641 8.83677 5.40137 8.6075C5.17633 8.37822 5.0499 8.06725 5.0499 7.743C5.0499 7.41875 5.17633 7.10779 5.40137 6.87851C5.62641 6.64923 5.93163 6.52042 6.24988 6.52042ZM5.0499 12.6333C5.0499 12.3091 5.17633 11.9981 5.40137 11.7688C5.62641 11.5395 5.93163 11.4107 6.24988 11.4107H9.44982C9.76807 11.4107 10.0733 11.5395 10.2983 11.7688C10.5234 11.9981 10.6498 12.3091 10.6498 12.6333C10.6498 12.9576 10.5234 13.2685 10.2983 13.4978C10.0733 13.7271 9.76807 13.8559 9.44982 13.8559H6.24988C5.93163 13.8559 5.62641 13.7271 5.40137 13.4978C5.17633 13.2685 5.0499 12.9576 5.0499 12.6333Z" fill="#264A6C"/>
</svg>
