<svg width="24" height="30" viewBox="0 0 24 30" fill="none" xmlns="http://www.w3.org/2000/svg">
<path d="M24 6.00001C24 2.74801 18.5055 0 12 0C5.49451 0 0 2.74801 0 6.00001V9.00002C0 12.252 5.49451 15 12 15C18.5055 15 24 12.252 24 9.00002V6.00001ZM12 25.5001C5.49451 25.5001 0 22.752 0 19.5V24C0 27.2521 5.49451 30.0001 12 30.0001C18.5055 30.0001 24 27.2521 24 24V19.5C24 22.752 18.5055 25.5001 12 25.5001Z" fill="#264A6C"/>
<path d="M24 12C24 15.252 18.5055 18 12 18C5.49451 18 0 15.252 0 12V16.5C0 19.752 5.49451 22.5 12 22.5C18.5055 22.5 24 19.752 24 16.5V12Z" fill="#264A6C"/>
</svg>
