<svg width="32" height="22" viewBox="0 0 32 22" fill="none" xmlns="http://www.w3.org/2000/svg">
<path d="M24.6309 7.69913L24.3223 7.59354L21.728 2.91247C21.2407 2.03277 20.5142 1.29708 19.626 0.784077C18.7379 0.271074 17.7215 5.31465e-05 16.6857 4.58218e-09H10.1531C8.95354 -4.71101e-05 7.78434 0.363237 6.81125 1.03837C5.83815 1.7135 5.1105 2.66624 4.73143 3.76157L3.49486 7.33177C2.45887 7.75201 1.5747 8.45702 0.953047 9.35854C0.331394 10.2601 -0.000122643 11.318 3.4035e-08 12.4V14.8483C3.4035e-08 16.4101 0.966857 17.752 2.35429 18.3569C2.53396 19.3476 3.0609 20.2492 3.84734 20.9115C4.63378 21.5737 5.63225 21.9567 6.67642 21.9965C7.7206 22.0364 8.74745 21.7308 9.58593 21.1306C10.4244 20.5304 11.0239 19.6718 11.2846 18.6979H20.7154C20.9761 19.6718 21.5756 20.5304 22.4141 21.1306C23.2526 21.7308 24.2794 22.0364 25.3236 21.9965C26.3678 21.9567 27.3662 21.5737 28.1527 20.9115C28.9391 20.2492 29.466 19.3476 29.6457 18.3569C30.3473 18.0521 30.9427 17.559 31.3603 16.9366C31.7779 16.3143 32 15.5892 32 14.8483V14.1026C31.9998 12.9674 31.6346 11.86 30.9544 10.9325C30.2743 10.0049 29.3125 9.30272 28.2011 8.92219L24.7497 7.74092V7.69913H24.6309ZM10.1531 2.19975H12.5714V7.69913H5.776L6.89829 4.4567C7.12583 3.79921 7.56269 3.22736 8.14692 2.82226C8.73114 2.41715 9.43307 2.19935 10.1531 2.19975ZM14.8571 2.19975H16.6857C17.3073 2.19954 17.9172 2.36194 18.4503 2.66959C18.9833 2.97724 19.4195 3.41857 19.712 3.94635L21.792 7.69913H14.8571V2.19975ZM24.2354 9.89888L27.4354 10.9944C28.1022 11.2227 28.6791 11.6441 29.0871 12.2006C29.4951 12.7571 29.7142 13.4215 29.7143 14.1026V14.8483C29.7143 15.2333 29.5771 15.5874 29.3486 15.869C28.9742 15.0233 28.3339 14.3116 27.5177 13.8341C26.7014 13.3565 25.7503 13.1371 24.7978 13.2065C23.8453 13.2759 22.9393 13.6307 22.2071 14.2211C21.4749 14.8115 20.9532 15.6078 20.7154 16.4981H11.2846C11.0468 15.6078 10.5251 14.8115 9.79292 14.2211C9.06072 13.6307 8.15474 13.2759 7.20224 13.2065C6.24974 13.1371 5.29858 13.3565 4.48235 13.8341C3.66612 14.3116 3.02583 15.0233 2.65143 15.869C2.41402 15.5779 2.28522 15.2184 2.28571 14.8483V12.4C2.28571 11.4101 2.74286 10.5082 3.47429 9.89888H24.2354ZM4.57143 17.598C4.57143 17.0146 4.81224 16.4551 5.2409 16.0426C5.66955 15.63 6.25093 15.3983 6.85714 15.3983C7.46335 15.3983 8.04473 15.63 8.47339 16.0426C8.90204 16.4551 9.14286 17.0146 9.14286 17.598C9.14286 18.1814 8.90204 18.7409 8.47339 19.1535C8.04473 19.566 7.46335 19.7978 6.85714 19.7978C6.25093 19.7978 5.66955 19.566 5.2409 19.1535C4.81224 18.7409 4.57143 18.1814 4.57143 17.598ZM25.1429 15.3983C25.7491 15.3983 26.3304 15.63 26.7591 16.0426C27.1878 16.4551 27.4286 17.0146 27.4286 17.598C27.4286 18.1814 27.1878 18.7409 26.7591 19.1535C26.3304 19.566 25.7491 19.7978 25.1429 19.7978C24.5366 19.7978 23.9553 19.566 23.5266 19.1535C23.098 18.7409 22.8571 18.1814 22.8571 17.598C22.8571 17.0146 23.098 16.4551 23.5266 16.0426C23.9553 15.63 24.5366 15.3983 25.1429 15.3983Z" fill="#264A6C"/>
</svg>
