<svg width="17" height="15" viewBox="0 0 17 15" fill="none" xmlns="http://www.w3.org/2000/svg">
<path d="M0.613309 13.6128L7.68757 0.489367C7.76724 0.341257 7.88472 0.217657 8.02767 0.131549C8.17063 0.0454402 8.33378 0 8.5 0C8.66622 0 8.82937 0.0454402 8.97233 0.131549C9.11528 0.217657 9.23276 0.341257 9.31243 0.489367L16.3867 13.6128C16.4637 13.7557 16.5027 13.9166 16.4999 14.0795C16.497 14.2424 16.4523 14.4017 16.3703 14.5417C16.2883 14.6818 16.1718 14.7977 16.0322 14.8781C15.8926 14.9584 15.7347 15.0004 15.5743 15H1.42574C1.26526 15.0004 1.10744 14.9584 0.967844 14.8781C0.828247 14.7977 0.711694 14.6818 0.629678 14.5417C0.547663 14.4017 0.503018 14.2424 0.500148 14.0795C0.497277 13.9166 0.53628 13.7557 0.613309 13.6128ZM9.48476 8.74884L9.98083 5.72699C9.99548 5.63751 9.99077 5.54587 9.96703 5.45843C9.94328 5.37099 9.90107 5.28984 9.84332 5.22063C9.78557 5.15142 9.71368 5.0958 9.63263 5.05764C9.55158 5.01948 9.46332 4.99969 9.37397 4.99965H7.62603C7.53668 4.99969 7.44842 5.01948 7.36737 5.05764C7.28632 5.0958 7.21443 5.15142 7.15668 5.22063C7.09893 5.28984 7.05672 5.37099 7.03297 5.45843C7.00923 5.54587 7.00452 5.63751 7.01917 5.72699L7.51524 8.74884H9.48476ZM9.85404 11.1233C9.85404 10.7587 9.71139 10.4091 9.45745 10.1513C9.20352 9.89346 8.85911 9.74863 8.5 9.74863C8.14089 9.74863 7.79648 9.89346 7.54255 10.1513C7.28861 10.4091 7.14596 10.7587 7.14596 11.1233C7.14596 11.4879 7.28861 11.8376 7.54255 12.0954C7.79648 12.3532 8.14089 12.498 8.5 12.498C8.85911 12.498 9.20352 12.3532 9.45745 12.0954C9.71139 11.8376 9.85404 11.4879 9.85404 11.1233Z" fill="black"/>
</svg>
