<svg width="36" height="37" viewBox="0 0 36 37" fill="none" xmlns="http://www.w3.org/2000/svg">
<rect y="0.342773" width="36" height="36" rx="8" fill="black"/>
<path d="M20.6842 20.0624C20.3922 19.6002 20.2413 19.0629 20.25 18.5162C20.2587 17.9696 20.4266 17.4373 20.7331 16.9846C21.0396 16.5318 21.4715 16.1782 21.9759 15.9671C22.4803 15.7559 23.0353 15.6963 23.573 15.7956C24.1108 15.8949 24.6079 16.1488 25.0035 16.5262C25.3992 16.9036 25.6762 17.3881 25.8008 17.9205C25.9253 18.4528 25.8919 19.0099 25.7047 19.5236C25.5175 20.0373 25.1845 20.4852 24.7466 20.8127C26.1135 21.5663 27 23.0139 27 24.7461V26.4333C27 26.5824 26.9407 26.7255 26.8352 26.8309C26.7298 26.9364 26.5867 26.9956 26.4375 26.9956C26.2883 26.9956 26.1452 26.9364 26.0398 26.8309C25.9343 26.7255 25.875 26.5824 25.875 26.4333V24.7461C25.875 22.8069 24.4395 21.3717 22.5 21.3717C21.4762 21.3717 21.0398 21.3492 20.4694 21.2345C19.0631 20.9488 17.8448 20.1097 16.4363 18.3483C16.386 18.2912 16.3478 18.2244 16.324 18.1522C16.3003 18.0799 16.2914 18.0035 16.2981 17.9277C16.3047 17.8519 16.3266 17.7783 16.3625 17.7112C16.3985 17.6441 16.4476 17.585 16.507 17.5375C16.5665 17.4899 16.6349 17.455 16.7083 17.4346C16.7816 17.4143 16.8583 17.4091 16.9337 17.4193C17.0091 17.4295 17.0817 17.4549 17.147 17.4939C17.2123 17.5329 17.2691 17.5848 17.3138 17.6464C18.3263 18.9107 19.1734 19.6035 20.052 19.9443C20.2264 20.0028 20.4401 20.0377 20.6842 20.0624ZM22.6924 20.2064C22.7861 20.2177 22.8802 20.2304 22.9747 20.2447L23.0625 20.2469C23.4939 20.246 23.9085 20.0799 24.2212 19.7828C24.5339 19.4857 24.7209 19.0802 24.7439 18.6495C24.7668 18.2188 24.6239 17.7957 24.3446 17.4671C24.0652 17.1385 23.6706 16.9293 23.2418 16.8825C22.8129 16.8357 22.3825 16.9549 22.0388 17.2156C21.6952 17.4763 21.4644 17.8586 21.3939 18.2841C21.3235 18.7096 21.4186 19.1459 21.6599 19.5034C21.9012 19.8609 22.2714 20.1125 22.6924 20.2064ZM20.0025 22.4627C20.1517 22.4627 20.2948 22.522 20.4002 22.6275C20.5057 22.7329 20.565 22.876 20.565 23.0251C20.5566 23.1137 20.5377 23.2009 20.5087 23.285C20.3074 23.7124 20.25 24.1556 20.25 24.7494V26.4366C20.25 26.5858 20.1907 26.7288 20.0852 26.8343C19.9798 26.9398 19.8367 26.999 19.6875 26.999C19.5383 26.999 19.3952 26.9398 19.2898 26.8343C19.1843 26.7288 19.125 26.5858 19.125 26.4366V24.7494C19.125 24.0105 19.206 23.4154 19.4704 22.8418C19.5086 22.7311 19.5804 22.6351 19.6757 22.5671C19.7711 22.4992 19.8854 22.4627 20.0025 22.4627ZM15.7028 15.4913C15.7905 15.6081 15.8294 15.7545 15.8111 15.8995C15.7928 16.0445 15.7188 16.1766 15.6048 16.268C15.4907 16.3593 15.3456 16.4027 15.2001 16.389C15.0546 16.3752 14.9202 16.3054 14.8253 16.1943L12.4987 13.2867C12.4485 13.2296 12.4103 13.1629 12.3865 13.0906C12.3628 13.0183 12.3539 12.942 12.3606 12.8662C12.3672 12.7904 12.3891 12.7167 12.425 12.6496C12.461 12.5825 12.5101 12.5235 12.5695 12.4759C12.629 12.4284 12.6974 12.3934 12.7708 12.3731C12.8441 12.3528 12.9208 12.3476 12.9962 12.3577C13.0716 12.3679 13.1442 12.3933 13.2095 12.4323C13.2748 12.4714 13.3316 12.5233 13.3763 12.5849L15.7028 15.4913ZM10.125 21.3717H16.3125C16.4617 21.3717 16.6048 21.431 16.7102 21.5364C16.8157 21.6419 16.875 21.7849 16.875 21.9341C16.875 22.0833 16.8157 22.2263 16.7102 22.3318C16.6048 22.4372 16.4617 22.4965 16.3125 22.4965H9.5625C9.41332 22.4965 9.27024 22.4372 9.16475 22.3318C9.05926 22.2263 9 22.0833 9 21.9341V9.56142C9 9.41226 9.05926 9.26921 9.16475 9.16375C9.27024 9.05828 9.41332 8.99902 9.5625 8.99902H23.0625C23.2117 8.99902 23.3548 9.05828 23.4602 9.16375C23.5657 9.26921 23.625 9.41226 23.625 9.56142V12.9358C23.625 13.0849 23.5657 13.228 23.4602 13.3335C23.3548 13.4389 23.2117 13.4982 23.0625 13.4982C22.9133 13.4982 22.7702 13.4389 22.6648 13.3335C22.5593 13.228 22.5 13.0849 22.5 12.9358V10.1238H10.125V21.3717Z" fill="white"/>
</svg>
