<svg width="13" height="17" viewBox="0 0 13 17" fill="none" xmlns="http://www.w3.org/2000/svg">
<path d="M6.29999 12.5C5.90216 12.5 5.52063 12.342 5.23933 12.0607C4.95802 11.7794 4.79999 11.3978 4.79999 11C4.79999 10.1675 5.46749 9.5 6.29999 9.5C6.69781 9.5 7.07934 9.65804 7.36065 9.93934C7.64195 10.2206 7.79999 10.6022 7.79999 11C7.79999 11.3978 7.64195 11.7794 7.36065 12.0607C7.07934 12.342 6.69781 12.5 6.29999 12.5ZM10.8 14.75V7.25H1.79999V14.75H10.8ZM10.8 5.75C11.1978 5.75 11.5793 5.90804 11.8606 6.18934C12.142 6.47064 12.3 6.85218 12.3 7.25V14.75C12.3 15.1478 12.142 15.5294 11.8606 15.8107C11.5793 16.092 11.1978 16.25 10.8 16.25H1.79999C1.40216 16.25 1.02063 16.092 0.739328 15.8107C0.458023 15.5294 0.299988 15.1478 0.299988 14.75V7.25C0.299988 6.4175 0.967488 5.75 1.79999 5.75H2.54999V4.25C2.54999 3.25544 2.94508 2.30161 3.64834 1.59835C4.3516 0.895088 5.30543 0.5 6.29999 0.5C6.79244 0.5 7.28008 0.596997 7.73505 0.785452C8.19002 0.973907 8.60342 1.25013 8.95164 1.59835C9.29986 1.94657 9.57608 2.35997 9.76454 2.81494C9.95299 3.26991 10.05 3.75754 10.05 4.25V5.75H10.8ZM6.29999 2C5.70325 2 5.13095 2.23705 4.709 2.65901C4.28704 3.08097 4.04999 3.65326 4.04999 4.25V5.75H8.54999V4.25C8.54999 3.65326 8.31293 3.08097 7.89098 2.65901C7.46902 2.23705 6.89672 2 6.29999 2Z" fill="#94A3B8"/>
</svg>
