<svg width="27" height="30" viewBox="0 0 27 30" fill="none" xmlns="http://www.w3.org/2000/svg">
<path d="M20.4722 2.85714H15.8789C15.2722 1.2 13.6833 0 11.8056 0C9.92778 0 8.33889 1.2 7.73222 2.85714H3.13889C1.55 2.85714 0.25 4.14286 0.25 5.71429V27.1429C0.25 28.7143 1.55 30 3.13889 30H11.9644C11.1099 29.1796 10.4147 28.2113 9.91333 27.1429H3.13889V5.71429H6.02778V7.14286C6.02778 8.71429 7.32778 10 8.91667 10H14.6944C16.2833 10 17.5833 8.71429 17.5833 7.14286V5.71429H20.4722V12.9714C21.4978 13.1143 22.4656 13.4143 23.3611 13.8286V5.71429C23.3611 4.14286 22.0611 2.85714 20.4722 2.85714ZM11.8056 5.71429C11.0111 5.71429 10.3611 5.07143 10.3611 4.28571C10.3611 3.5 11.0111 2.85714 11.8056 2.85714C12.6 2.85714 13.25 3.5 13.25 4.28571C13.25 5.07143 12.6 5.71429 11.8056 5.71429ZM19.0278 15.7143C15.0411 15.7143 11.8056 18.9143 11.8056 22.8571C11.8056 26.8 15.0411 30 19.0278 30C23.0144 30 26.25 26.8 26.25 22.8571C26.25 18.9143 23.0144 15.7143 19.0278 15.7143ZM20.8911 25.7143L18.5078 23.3571C18.373 23.2244 18.2954 23.0452 18.2911 22.8571V19.3C18.2911 18.9 18.6089 18.5857 19.0133 18.5857C19.4178 18.5857 19.7356 18.9 19.7356 19.3V22.5714L21.9022 24.7143C21.9697 24.7797 22.0234 24.8577 22.0603 24.9438C22.0971 25.0299 22.1163 25.1223 22.1168 25.2158C22.1172 25.3092 22.099 25.4019 22.063 25.4883C22.0271 25.5747 21.9742 25.6533 21.9074 25.7194C21.8405 25.7855 21.7611 25.8378 21.6737 25.8733C21.5863 25.9089 21.4927 25.9269 21.3982 25.9265C21.3037 25.926 21.2102 25.907 21.1232 25.8706C21.0361 25.8342 20.9573 25.781 20.8911 25.7143Z" fill="#264A6C"/>
</svg>
