<svg width="20" height="20" viewBox="0 0 20 20" fill="none" xmlns="http://www.w3.org/2000/svg">
<g clip-path="url(#clip0_1812_812)">
<path d="M2.93002 17.0698C1.97492 16.1474 1.21309 15.0439 0.689004 13.8239C0.164914 12.6038 -0.110948 11.2916 -0.122486 9.96385C-0.134024 8.63605 0.118993 7.31926 0.621801 6.09029C1.12461 4.86133 1.86714 3.74481 2.80607 2.80589C3.745 1.86696 4.86151 1.12443 6.09048 0.621618C7.31944 0.11881 8.63624 -0.134207 9.96403 -0.122669C11.2918 -0.111131 12.604 0.164731 13.8241 0.688821C15.0441 1.21291 16.1476 1.97473 17.07 2.92984C18.8916 4.81586 19.8995 7.34188 19.8768 9.96385C19.854 12.5858 18.8023 15.0939 16.9482 16.948C15.0941 18.8021 12.586 19.8538 9.96403 19.8766C7.34206 19.8994 4.81604 18.8914 2.93002 17.0698ZM15.66 15.6598C17.1611 14.1587 18.0045 12.1227 18.0045 9.99984C18.0045 7.87692 17.1611 5.84096 15.66 4.33984C14.1589 2.83871 12.1229 1.99539 10 1.99539C7.87711 1.99539 5.84114 2.83871 4.34002 4.33984C2.83889 5.84096 1.99557 7.87692 1.99557 9.99984C1.99557 12.1227 2.83889 14.1587 4.34002 15.6598C5.84114 17.161 7.87711 18.0043 10 18.0043C12.1229 18.0043 14.1589 17.161 15.66 15.6598ZM7.00002 5.99984L15 9.99984L7.00002 13.9998V5.99984Z" fill="#25E97D"/>
</g>
<defs>
<clipPath id="clip0_1812_812">
<rect width="20" height="20" fill="white"/>
</clipPath>
</defs>
</svg>
