<svg width="16" height="15" viewBox="0 0 16 15" fill="none" xmlns="http://www.w3.org/2000/svg">
<path d="M7.99584 7.1541C9.56295 7.1541 10.8333 5.88371 10.8333 4.3166C10.8333 2.7495 9.56295 1.4791 7.99584 1.4791C6.42873 1.4791 5.15834 2.7495 5.15834 4.3166C5.15834 5.88371 6.42873 7.1541 7.99584 7.1541Z" fill="white"/>
<path d="M5.5 11.1042C5.50866 10.8737 5.58547 10.6509 5.72073 10.464C5.85599 10.2771 6.04362 10.1345 6.25991 10.0542C6.4762 9.97395 6.71142 9.95961 6.93586 10.013C7.1603 10.0664 7.36387 10.1851 7.52083 10.3542L9.12917 12.0834L11.9792 8.9042C10.802 8.11941 9.41465 7.70975 8 7.7292C7.0187 7.70439 6.04387 7.89484 5.14406 8.28716C4.24425 8.67947 3.4413 9.26413 2.79167 10C2.73671 10.0733 2.70742 10.1626 2.70833 10.2542V12.5C2.70824 12.7168 2.79259 12.925 2.94351 13.0806C3.09442 13.2362 3.30001 13.3269 3.51667 13.3334H7.0875L5.80833 11.9584C5.70245 11.8438 5.62061 11.7092 5.56765 11.5625C5.51469 11.4158 5.49168 11.26 5.5 11.1042Z" fill="white"/>
<path d="M12.4833 13.3335C12.7 13.327 12.9056 13.2364 13.0565 13.0808C13.2074 12.9252 13.2918 12.7169 13.2917 12.5002V10.9335L11.1542 13.3335H12.4833Z" fill="white"/>
<path d="M14.5708 7.75863C14.5299 7.72167 14.4821 7.6932 14.4301 7.67486C14.3782 7.65652 14.3231 7.64867 14.268 7.65177C14.213 7.65487 14.1591 7.66886 14.1096 7.69292C14.06 7.71698 14.0157 7.75065 13.9792 7.79196L9.1375 13.2086L6.97084 10.8795C6.93527 10.8379 6.89186 10.8037 6.84309 10.7789C6.79432 10.7541 6.74113 10.7391 6.68658 10.7349C6.63202 10.7306 6.57716 10.7371 6.52513 10.7541C6.4731 10.771 6.42492 10.7981 6.38334 10.8336C6.34428 10.8724 6.31328 10.9184 6.29213 10.9692C6.27098 11.02 6.26009 11.0745 6.26009 11.1295C6.26009 11.1845 6.27098 11.2389 6.29213 11.2897C6.31328 11.3405 6.34428 11.3866 6.38334 11.4253L9.16667 14.4253L14.6 8.33363C14.6701 8.25245 14.7061 8.14738 14.7007 8.04028C14.6953 7.93318 14.6488 7.8323 14.5708 7.75863Z" fill="white"/>
</svg>
