<svg width="15" height="9" viewBox="0 0 15 9" fill="none" xmlns="http://www.w3.org/2000/svg">
<path fill-rule="evenodd" clip-rule="evenodd" d="M14.2505 4.4999C14.2505 4.36729 14.1978 4.24011 14.104 4.14635C14.0103 4.05258 13.8831 3.9999 13.7505 3.9999H1.95747L5.10447 0.853899C5.15095 0.807411 5.18783 0.752222 5.21299 0.691483C5.23815 0.630743 5.2511 0.565643 5.2511 0.499899C5.2511 0.434155 5.23815 0.369055 5.21299 0.308316C5.18783 0.247576 5.15095 0.192387 5.10447 0.145899C5.05798 0.0994111 5.00279 0.062535 4.94205 0.0373759C4.88131 0.0122168 4.81621 -0.000732422 4.75047 -0.000732422C4.68472 -0.000732422 4.61962 0.0122168 4.55888 0.0373759C4.49814 0.062535 4.44295 0.0994111 4.39647 0.145899L0.396467 4.1459C0.349903 4.19234 0.31296 4.24752 0.287754 4.30827C0.262548 4.36901 0.249573 4.43413 0.249573 4.4999C0.249573 4.56567 0.262548 4.63079 0.287754 4.69153C0.31296 4.75228 0.349903 4.80745 0.396467 4.8539L4.39647 8.8539C4.44295 8.90039 4.49814 8.93726 4.55888 8.96242C4.61962 8.98758 4.68472 9.00053 4.75047 9.00053C4.81621 9.00053 4.88131 8.98758 4.94205 8.96242C5.00279 8.93726 5.05798 8.90039 5.10447 8.8539C5.15095 8.80741 5.18783 8.75222 5.21299 8.69148C5.23815 8.63074 5.2511 8.56564 5.2511 8.4999C5.2511 8.43416 5.23815 8.36905 5.21299 8.30832C5.18783 8.24758 5.15095 8.19239 5.10447 8.1459L1.95747 4.9999H13.7505C13.8831 4.9999 14.0103 4.94722 14.104 4.85345C14.1978 4.75968 14.2505 4.63251 14.2505 4.4999Z" fill="#006EDA"/>
</svg>
