<svg width="29" height="29" viewBox="0 0 29 29" fill="none" xmlns="http://www.w3.org/2000/svg">
<path d="M16.75 19.7317C17.0945 19.7317 17.3973 19.6006 17.6584 19.3383C17.9195 19.0761 18.0506 18.7733 18.0517 18.43C18.0528 18.0867 17.9217 17.7839 17.6584 17.5217C17.395 17.2594 17.0923 17.1283 16.75 17.1283C16.4078 17.1283 16.105 17.2594 15.8417 17.5217C15.5784 17.7839 15.4473 18.0867 15.4484 18.43C15.4495 18.7733 15.5806 19.0761 15.8417 19.3383C16.1028 19.6006 16.4056 19.7328 16.75 19.7317ZM16.75 15.0383C16.9489 15.0383 17.1212 14.97 17.2667 14.8333C17.4123 14.6967 17.5028 14.5333 17.5384 14.3433C17.5939 13.9033 17.7228 13.5339 17.925 13.235C18.1262 12.935 18.5167 12.5167 19.0967 11.98C19.8012 11.3389 20.2923 10.7667 20.57 10.2633C20.8478 9.76111 20.9867 9.18389 20.9867 8.53167C20.9867 7.40944 20.5867 6.47389 19.7867 5.725C18.9867 4.97611 17.9745 4.60167 16.75 4.60167C15.9612 4.60167 15.2345 4.78889 14.57 5.16333C13.9056 5.53667 13.3723 6.07 12.97 6.76333C12.8689 6.93333 12.8556 7.11278 12.93 7.30167C13.0045 7.49056 13.1334 7.62167 13.3167 7.695C13.4945 7.76944 13.6812 7.77833 13.8767 7.72167C14.0723 7.665 14.2245 7.55056 14.3334 7.37833C14.6256 6.93167 14.9706 6.59667 15.3684 6.37333C15.7662 6.15 16.2267 6.03833 16.75 6.03833C17.5445 6.03833 18.2034 6.27389 18.7267 6.745C19.2512 7.21611 19.5134 7.82444 19.5134 8.57C19.5134 9.02333 19.3856 9.445 19.13 9.835C18.8767 10.225 18.44 10.6944 17.82 11.2433C17.1867 11.7878 16.7478 12.2744 16.5034 12.7033C16.2589 13.1322 16.1089 13.665 16.0534 14.3017C16.0267 14.485 16.0834 14.6533 16.2234 14.8067C16.3623 14.9611 16.5378 15.0383 16.75 15.0383ZM7.77671 23.8333C7.00893 23.8333 6.36837 23.5767 5.85504 23.0633C5.34171 22.55 5.08449 21.9094 5.08337 21.1417V3.19167C5.08337 2.425 5.3406 1.78444 5.85504 1.27C6.36948 0.755555 7.01004 0.498889 7.77671 0.5H25.725C26.4917 0.5 27.1323 0.756666 27.6467 1.27C28.1612 1.78333 28.4178 2.42389 28.4167 3.19167V21.1417C28.4167 21.9083 28.16 22.5483 27.6467 23.0617C27.1334 23.575 26.4923 23.8322 25.7234 23.8333H7.77671ZM2.77671 28.8333C2.00893 28.8333 1.36837 28.5767 0.855041 28.0633C0.341707 27.55 0.0844851 26.9094 0.083374 26.1417V7.35833C0.083374 7.12167 0.162818 6.92389 0.321707 6.765C0.480596 6.60611 0.67893 6.52667 0.916707 6.52667C1.15449 6.52667 1.35282 6.60611 1.51171 6.765C1.6706 6.92389 1.75004 7.12222 1.75004 7.36V26.1417C1.75004 26.3972 1.85671 26.6322 2.07004 26.8467C2.28337 27.0611 2.51837 27.1678 2.77504 27.1667H21.5584C21.795 27.1667 21.9928 27.2461 22.1517 27.405C22.3106 27.5639 22.3906 27.7622 22.3917 28C22.3928 28.2378 22.3128 28.4361 22.1517 28.595C21.9906 28.7539 21.7928 28.8333 21.5584 28.8333H2.77671Z" fill="#264A6C"/>
</svg>
