<svg width="22" height="22" viewBox="0 0 22 22" fill="none" xmlns="http://www.w3.org/2000/svg">
<path d="M0 3.025C0 2.22272 0.318705 1.4533 0.886002 0.886002C1.4533 0.318705 2.22272 0 3.025 0H16.775C17.5773 0 18.3467 0.318705 18.914 0.886002C19.4813 1.4533 19.8 2.22272 19.8 3.025V9.9242C19.2856 9.59482 18.7311 9.33272 18.15 9.1443V3.025C18.15 2.266 17.534 1.65 16.775 1.65H3.025C2.266 1.65 1.65 2.266 1.65 3.025V16.775C1.65 17.534 2.266 18.15 3.025 18.15H9.1443C9.3346 18.7374 9.5975 19.2907 9.9242 19.8H3.025C2.22272 19.8 1.4533 19.4813 0.886002 18.914C0.318705 18.3467 0 17.5773 0 16.775V3.025ZM4.125 11.55H10.3136C9.91925 12.0543 9.59442 12.6092 9.3478 13.2H4.125C3.9062 13.2 3.69635 13.1131 3.54164 12.9584C3.38692 12.8036 3.3 12.5938 3.3 12.375C3.3 12.1562 3.38692 11.9464 3.54164 11.7916C3.69635 11.6369 3.9062 11.55 4.125 11.55ZM7.975 17.05H4.125C3.9062 17.05 3.69635 16.9631 3.54164 16.8084C3.38692 16.6536 3.3 16.4438 3.3 16.225C3.3 16.0062 3.38692 15.7964 3.54164 15.6416C3.69635 15.4869 3.9062 15.4 4.125 15.4H7.975C8.1938 15.4 8.40365 15.4869 8.55836 15.6416C8.71308 15.7964 8.8 16.0062 8.8 16.225C8.8 16.4438 8.71308 16.6536 8.55836 16.8084C8.40365 16.9631 8.1938 17.05 7.975 17.05ZM7.7 2.1967C7.86388 2.19682 8.02401 2.24575 8.15997 2.33724C8.29593 2.42873 8.40156 2.55864 8.4634 2.7104L10.9362 8.7626C11.0191 8.96521 11.018 9.19244 10.9333 9.39429C10.8487 9.59615 10.6873 9.7561 10.4846 9.83895C10.282 9.9218 10.0548 9.92078 9.85296 9.83609C9.6511 9.75141 9.49115 9.59001 9.4083 9.3874L8.943 8.2478H6.4548L5.9884 9.3874C5.90274 9.58575 5.74269 9.74258 5.54264 9.8242C5.34259 9.90581 5.11851 9.90569 4.91855 9.82386C4.71859 9.74203 4.55871 9.58502 4.47326 9.38658C4.38782 9.18814 4.38363 8.9641 4.4616 8.7626L6.9366 2.7104C6.99844 2.55864 7.10407 2.42873 7.24003 2.33724C7.37599 2.24575 7.53612 2.19682 7.7 2.1967ZM7.1291 6.5967H8.2698L7.7 5.203L7.1291 6.5967ZM14.025 2.1967C14.2438 2.1967 14.4536 2.28362 14.6084 2.43834C14.7631 2.59305 14.85 2.8029 14.85 3.0217V4.3967H16.225C16.4438 4.3967 16.6536 4.48362 16.8084 4.63834C16.9631 4.79305 17.05 5.0029 17.05 5.2217C17.05 5.4405 16.9631 5.65035 16.8084 5.80506C16.6536 5.95978 16.4438 6.0467 16.225 6.0467H14.85V7.4217C14.85 7.6405 14.7631 7.85035 14.6084 8.00506C14.4536 8.15978 14.2438 8.2467 14.025 8.2467C13.8062 8.2467 13.5964 8.15978 13.4416 8.00506C13.2869 7.85035 13.2 7.6405 13.2 7.4217V6.0467H11.825C11.6062 6.0467 11.3964 5.95978 11.2416 5.80506C11.0869 5.65035 11 5.4405 11 5.2217C11 5.0029 11.0869 4.79305 11.2416 4.63834C11.3964 4.48362 11.6062 4.3967 11.825 4.3967H13.2V3.0217C13.2 2.8029 13.2869 2.59305 13.4416 2.43834C13.5964 2.28362 13.8062 2.1967 14.025 2.1967ZM22 15.95C22 14.3454 21.3626 12.8066 20.228 11.672C19.0934 10.5374 17.5546 9.9 15.95 9.9C14.3454 9.9 12.8066 10.5374 11.672 11.672C10.5374 12.8066 9.9 14.3454 9.9 15.95C9.9 17.5546 10.5374 19.0934 11.672 20.228C12.8066 21.3626 14.3454 22 15.95 22C17.5546 22 19.0934 21.3626 20.228 20.228C21.3626 19.0934 22 17.5546 22 15.95ZM16.5 16.5L16.5011 19.2533C16.5011 19.3992 16.4432 19.5391 16.34 19.6422C16.2369 19.7454 16.097 19.8033 15.9511 19.8033C15.8052 19.8033 15.6653 19.7454 15.5622 19.6422C15.459 19.5391 15.4011 19.3992 15.4011 19.2533V16.5H12.6456C12.4997 16.5 12.3598 16.4421 12.2567 16.3389C12.1535 16.2358 12.0956 16.0959 12.0956 15.95C12.0956 15.8041 12.1535 15.6642 12.2567 15.5611C12.3598 15.4579 12.4997 15.4 12.6456 15.4H15.4V12.65C15.4 12.5041 15.4579 12.3642 15.5611 12.2611C15.6642 12.1579 15.8041 12.1 15.95 12.1C16.0959 12.1 16.2358 12.1579 16.3389 12.2611C16.4421 12.3642 16.5 12.5041 16.5 12.65V15.4H19.2533C19.3992 15.4 19.5391 15.4579 19.6422 15.5611C19.7454 15.6642 19.8033 15.8041 19.8033 15.95C19.8033 16.0959 19.7454 16.2358 19.6422 16.3389C19.5391 16.4421 19.3992 16.5 19.2533 16.5H16.5Z" fill="#006EDA"/>
</svg>
