<svg width="28" height="31" viewBox="0 0 28 31" fill="none" xmlns="http://www.w3.org/2000/svg">
<path d="M15.875 19.25C15.875 20.0508 16.0361 20.8125 16.3584 21.5352C16.6807 22.2578 17.1445 22.8926 17.75 23.4395V30.1484L21.5 28.2734L25.25 30.1484V23.4395C25.8457 22.9023 26.3047 22.2725 26.627 21.5498C26.9492 20.8271 27.1152 20.0605 27.125 19.25C27.125 18.4785 26.9785 17.751 26.6855 17.0674C26.3926 16.3838 25.9922 15.7881 25.4844 15.2803C24.9766 14.7725 24.3809 14.3672 23.6973 14.0645C23.0137 13.7617 22.2812 13.6152 21.5 13.625C20.7285 13.625 20.001 13.7715 19.3174 14.0645C18.6338 14.3574 18.0381 14.7627 17.5303 15.2803C17.0225 15.7979 16.6221 16.3936 16.3291 17.0674C16.0361 17.7412 15.8848 18.4688 15.875 19.25ZM21.5 23C20.9824 23 20.499 22.9023 20.0498 22.707C19.6006 22.5117 19.2002 22.2432 18.8486 21.9014C18.4971 21.5596 18.2285 21.1641 18.043 20.7148C17.8574 20.2656 17.7598 19.7773 17.75 19.25C17.75 18.7324 17.8477 18.249 18.043 17.7998C18.2383 17.3506 18.5068 16.9502 18.8486 16.5986C19.1904 16.2471 19.5859 15.9785 20.0352 15.793C20.4844 15.6074 20.9727 15.5098 21.5 15.5C22.0176 15.5 22.501 15.5977 22.9502 15.793C23.3994 15.9883 23.7998 16.2568 24.1514 16.5986C24.5029 16.9404 24.7715 17.3359 24.957 17.7852C25.1426 18.2344 25.2402 18.7227 25.25 19.25C25.25 19.7676 25.1523 20.251 24.957 20.7002C24.7617 21.1494 24.4932 21.5498 24.1514 21.9014C23.8096 22.2529 23.4141 22.5215 22.9648 22.707C22.5156 22.8926 22.0273 22.9902 21.5 23ZM19.625 24.5527C20.2207 24.7676 20.8213 24.875 21.4268 24.875C22.1104 24.875 22.7598 24.7676 23.375 24.5527V27.1016L21.5 26.1641L19.625 27.1016V24.5527ZM0.875 8.54199V30.5H15.875V28.625H2.75V9.875H10.25V2.375H23.375V11.5156C23.6973 11.5938 24.0146 11.6914 24.3271 11.8086C24.6396 11.9258 24.9473 12.0625 25.25 12.2188V0.5H8.91699L0.875 8.54199ZM4.08301 8L8.375 3.70801V8H4.08301Z" fill="#FEAA1C"/>
</svg>
