<svg width="12" height="15" viewBox="0 0 12 15" fill="none" xmlns="http://www.w3.org/2000/svg">
<path d="M6 0.000749998V4.87551C6 5.17386 6.11853 5.45999 6.3295 5.67096C6.54048 5.88193 6.82663 6.00045 7.125 6.00045H12V13.5001C12 13.8979 11.842 14.2794 11.5607 14.5607C11.2794 14.842 10.8978 15 10.5 15H5.151C5.21475 14.8125 5.25 14.6085 5.25 14.3933V11.2509C5.79161 10.5288 6.05456 9.6356 5.99057 8.73523C5.92658 7.83486 5.53994 6.98779 4.90165 6.34953C4.26336 5.71127 3.41624 5.32466 2.51583 5.26067C1.61542 5.19668 0.722145 5.45962 0 6.0012V1.49993C0 1.10212 0.158035 0.720608 0.43934 0.439318C0.720644 0.158027 1.10218 0 1.5 0L6 0.000749998ZM2.25 6.75041C2.70567 6.75042 3.1506 6.88878 3.52591 7.14718C3.90122 7.40557 4.18923 7.77183 4.35183 8.19748C4.51442 8.62313 4.54394 9.08812 4.43647 9.53092C4.32901 9.97371 4.08963 10.3734 3.75 10.6772V14.3933C3.75 14.4572 3.73364 14.5201 3.70249 14.5759C3.67133 14.6318 3.62642 14.6787 3.572 14.7123C3.51759 14.7459 3.45549 14.765 3.39161 14.7679C3.32772 14.7707 3.26417 14.7572 3.207 14.7285L2.25 14.25L1.293 14.7285C1.23583 14.7572 1.17228 14.7707 1.10839 14.7679C1.04451 14.765 0.982409 14.7459 0.927996 14.7123C0.873584 14.6787 0.828666 14.6318 0.797512 14.5759C0.766357 14.5201 0.750002 14.4572 0.75 14.3933V10.6772C0.410374 10.3734 0.170991 9.97371 0.0635254 9.53092C-0.04394 9.08812 -0.0144222 8.62313 0.148173 8.19748C0.310768 7.77183 0.598776 7.40557 0.974089 7.14718C1.3494 6.88878 1.79433 6.75042 2.25 6.75041ZM7.5 0.0329984C7.78416 0.0932619 8.04471 0.234732 8.25 0.440228L11.5605 3.75056C11.766 3.95585 11.9075 4.21638 11.9678 4.50052H7.5V0.0329984Z" fill="white"/>
</svg>
