<svg width="16" height="15" viewBox="0 0 16 15" fill="none" xmlns="http://www.w3.org/2000/svg">
<path d="M6.18638 1.47382V11.2501C6.18638 11.3177 6.17418 11.3848 6.15037 11.4481L9.56137 13.1536V3.16132L6.18638 1.47382ZM5.06138 1.42882L1.12387 3.17932V13.1986L5.09175 11.4346C5.0714 11.3752 5.06114 11.3128 5.06138 11.2501V1.42882ZM5.36963 0.0608187C5.45207 0.0190098 5.54355 -0.00183545 5.63597 0.000126759C5.72839 0.00208897 5.8189 0.0267982 5.8995 0.0720687L10.1385 2.19157L14.958 0.0495687C15.0436 0.0115194 15.1374 -0.00452783 15.2309 0.00288461C15.3243 0.010297 15.4144 0.0409344 15.493 0.0920132C15.5715 0.143092 15.6361 0.212994 15.6808 0.295367C15.7255 0.377741 15.7489 0.469976 15.7489 0.563694V11.8137C15.7489 11.9225 15.7173 12.029 15.658 12.1203C15.5987 12.2115 15.5142 12.2836 15.4147 12.3278L10.3522 14.5778C10.2763 14.6115 10.1939 14.628 10.1108 14.6261C10.0277 14.6241 9.94615 14.6038 9.87187 14.5666L5.60925 12.4358L0.790875 14.5778C0.705229 14.6159 0.611434 14.6319 0.51801 14.6245C0.424586 14.6171 0.334495 14.5865 0.25592 14.5354C0.177346 14.4843 0.112779 14.4144 0.0680857 14.332C0.0233921 14.2496 -1.18907e-05 14.1574 4.5325e-09 14.0637V2.81369C-1.38087e-05 2.70486 0.0315455 2.59836 0.0908518 2.5071C0.150158 2.41585 0.234664 2.34376 0.334125 2.29957L5.36963 0.0608187ZM10.6864 3.17932V13.1986L14.6239 11.4481V1.42994L10.6864 3.17932Z" fill="#94A3B8"/>
</svg>
