<svg width="15" height="9" viewBox="0 0 15 9" fill="none" xmlns="http://www.w3.org/2000/svg">
<path fill-rule="evenodd" clip-rule="evenodd" d="M0.499512 4.50002C0.499512 4.36741 0.55219 4.24024 0.645958 4.14647C0.739726 4.0527 0.866903 4.00002 0.999512 4.00002H12.7925L9.64551 0.854021C9.55163 0.760135 9.49888 0.632797 9.49888 0.500021C9.49888 0.367245 9.55163 0.239908 9.64551 0.146021C9.7394 0.0521345 9.86674 -0.000610348 9.99951 -0.000610352C10.1323 -0.000610355 10.2596 0.0521345 10.3535 0.146021L14.3535 4.14602C14.4001 4.19247 14.437 4.24764 14.4622 4.30839C14.4874 4.36913 14.5004 4.43425 14.5004 4.50002C14.5004 4.56579 14.4874 4.63091 14.4622 4.69165C14.437 4.7524 14.4001 4.80758 14.3535 4.85402L10.3535 8.85402C10.2596 8.94791 10.1323 9.00065 9.99951 9.00065C9.86674 9.00065 9.7394 8.94791 9.64551 8.85402C9.55163 8.76013 9.49888 8.6328 9.49888 8.50002C9.49888 8.36725 9.55163 8.23991 9.64551 8.14602L12.7925 5.00002H0.999512C0.866903 5.00002 0.739726 4.94734 0.645958 4.85357C0.55219 4.75981 0.499512 4.63263 0.499512 4.50002Z" fill="white"/>
</svg>
