<svg width="12" height="12" viewBox="0 0 12 12" fill="none" xmlns="http://www.w3.org/2000/svg">
<path d="M4.9375 0.375C6.01494 0.375 7.04825 0.803012 7.81012 1.56488C8.57199 2.32674 9 3.36006 9 4.4375C9 5.44375 8.63125 6.36875 8.025 7.08125L8.19375 7.25H8.6875L11.8125 10.375L10.875 11.3125L7.75 8.1875V7.69375L7.58125 7.525C6.84398 8.15404 5.90665 8.49972 4.9375 8.5C3.86006 8.5 2.82674 8.07199 2.06488 7.31012C1.30301 6.54825 0.875 5.51494 0.875 4.4375C0.875 3.36006 1.30301 2.32674 2.06488 1.56488C2.82674 0.803012 3.86006 0.375 4.9375 0.375ZM4.9375 1.625C3.375 1.625 2.125 2.875 2.125 4.4375C2.125 6 3.375 7.25 4.9375 7.25C6.5 7.25 7.75 6 7.75 4.4375C7.75 2.875 6.5 1.625 4.9375 1.625Z" fill="white"/>
</svg>
