<svg width="15" height="19" viewBox="0 0 15 19" fill="none" xmlns="http://www.w3.org/2000/svg">
<path d="M9.23077 1.1C9.23077 0.94087 9.29155 0.788258 9.39975 0.675736C9.50794 0.563214 9.65468 0.5 9.80769 0.5H14.4231C14.5761 0.5 14.7228 0.563214 14.831 0.675736C14.9392 0.788258 15 0.94087 15 1.1V7.1C15 7.25913 14.9392 7.41174 14.831 7.52426C14.7228 7.63679 14.5761 7.7 14.4231 7.7H12.6923V17.9C12.6923 18.0591 12.6315 18.2117 12.5233 18.3243C12.4151 18.4368 12.2684 18.5 12.1154 18.5C11.9624 18.5 11.8156 18.4368 11.7074 18.3243C11.5992 18.2117 11.5385 18.0591 11.5385 17.9V7.7H9.80769C9.65468 7.7 9.50794 7.63679 9.39975 7.52426C9.29155 7.41174 9.23077 7.25913 9.23077 7.1V1.1ZM3.82962 2.9H8.07692V4.1H3.82962C3.54913 4.09993 3.27823 4.20612 3.06756 4.39871C2.8569 4.5913 2.7209 4.8571 2.685 5.1464L2.36769 7.7H8.175C8.29436 8.05109 8.51548 8.35505 8.8079 8.56997C9.10031 8.78489 9.44962 8.9002 9.80769 8.9H10.3846V10.4528C10.2542 10.4043 10.1145 10.3891 9.9772 10.4086C9.83995 10.428 9.70923 10.4816 9.59607 10.5647C9.48291 10.6477 9.39064 10.7579 9.32706 10.8859C9.26347 11.0139 9.23045 11.1559 9.23077 11.3C9.23097 11.4439 9.26434 11.5856 9.32807 11.7133C9.3918 11.841 9.48403 11.9509 9.59704 12.0339C9.71006 12.1169 9.84055 12.1705 9.97758 12.1902C10.1146 12.2099 10.2542 12.1952 10.3846 12.1472V14.9H1.73077C1.27174 14.9 0.831513 14.7104 0.506931 14.3728C0.182348 14.0352 1.89002e-08 13.5774 1.89002e-08 13.1V9.5C-5.39113e-05 9.12037 0.115307 8.75043 0.32959 8.44309C0.543873 8.13575 0.846106 7.90674 1.19308 7.7888L1.20462 7.7H0.576923C0.423914 7.7 0.277171 7.63679 0.168977 7.52426C0.0607829 7.41174 1.89002e-08 7.25913 1.89002e-08 7.1C1.89002e-08 6.94087 0.0607829 6.78826 0.168977 6.67574C0.277171 6.56321 0.423914 6.5 0.576923 6.5H1.35346L1.54038 4.9928C1.61221 4.41399 1.88438 3.88223 2.30595 3.49703C2.72752 3.11182 3.2696 2.89958 3.83077 2.9M3.75 12.1988C3.86349 12.1988 3.97587 12.1756 4.08073 12.1304C4.18558 12.0852 4.28085 12.019 4.3611 11.9355C4.44135 11.8521 4.50501 11.753 4.54844 11.644C4.59188 11.5349 4.61423 11.418 4.61423 11.3C4.61423 11.182 4.59188 11.0651 4.54844 10.956C4.50501 10.847 4.44135 10.7479 4.3611 10.6645C4.28085 10.581 4.18558 10.5148 4.08073 10.4696C3.97587 10.4244 3.86349 10.4012 3.75 10.4012C3.52079 10.4012 3.30097 10.4959 3.1389 10.6645C2.97682 10.833 2.88577 11.0616 2.88577 11.3C2.88577 11.5384 2.97682 11.767 3.1389 11.9355C3.30097 12.1041 3.52079 12.1988 3.75 12.1988ZM3.46154 16.1H1.73077V16.4C1.73077 16.6387 1.82194 16.8676 1.98423 17.0364C2.14653 17.2052 2.36664 17.3 2.59615 17.3C2.82567 17.3 3.04578 17.2052 3.20807 17.0364C3.37036 16.8676 3.46154 16.6387 3.46154 16.4V16.1Z" fill="#94A3B8"/>
</svg>
