<svg width="36" height="36" viewBox="0 0 36 36" fill="none" xmlns="http://www.w3.org/2000/svg">
<path d="M22.8333 32.5H8.33333C7.05145 32.5 5.82208 31.9908 4.91565 31.0843C4.00922 30.1779 3.5 28.9485 3.5 27.6667V26.0556H19.6111V29.2778C19.6111 30.1324 19.9506 30.9519 20.5549 31.5562C21.1592 32.1605 21.9787 32.5 22.8333 32.5ZM22.8333 32.5C23.6879 32.5 24.5075 32.1605 25.1118 31.5562C25.7161 30.9519 26.0556 30.1324 26.0556 29.2778V6.72222C26.0556 6.08493 26.2445 5.46194 26.5986 4.93205C26.9527 4.40216 27.4559 3.98916 28.0447 3.74528C28.6335 3.5014 29.2814 3.43759 29.9064 3.56192C30.5315 3.68625 31.1056 3.99313 31.5562 4.44377C32.0069 4.8944 32.3138 5.46855 32.4381 6.0936C32.5624 6.71865 32.4986 7.36653 32.2547 7.95531C32.0108 8.5441 31.5978 9.04734 31.068 9.4014C30.5381 9.75547 29.9151 9.94445 29.2778 9.94445H26.0556M29.2778 3.5H11.5556C10.2737 3.5 9.0443 4.00923 8.13787 4.91565C7.23145 5.82208 6.72222 7.05145 6.72222 8.33333V26.0556M13.1667 9.94445H19.6111M13.1667 16.3889H19.6111" stroke="#264A6C" stroke-width="2" stroke-linecap="round" stroke-linejoin="round"/>
</svg>
