<svg width="19" height="20" viewBox="0 0 19 20" fill="none" xmlns="http://www.w3.org/2000/svg">
<path d="M9.31641 0.943359C9.17188 0.943359 9.02734 0.947266 8.88281 0.953906L8.91406 1.65625C9.04688 1.65 9.17969 1.64648 9.31641 1.64648C13.957 1.64648 17.7148 5.4043 17.7148 10.0449C17.7148 14.6855 13.957 18.4434 9.31641 18.4434C5.81641 18.4434 2.81836 16.3066 1.55664 13.2637L2.63594 12.9395L0.744141 11.5996L0 13.7285L0.880859 13.4668C2.23359 16.7949 5.50391 19.1465 9.31641 19.1465C14.3398 19.1465 18.418 15.0684 18.418 10.0449C18.418 5.02148 14.3398 0.943359 9.31641 0.943359ZM8.11328 1.02305C7.59375 1.09141 7.09375 1.20273 6.60547 1.3543L6.82422 2.02188C7.26953 1.88359 7.73438 1.78164 8.20703 1.71914L8.11328 1.02305ZM5.88672 1.61367C5.40234 1.81094 4.94141 2.04805 4.50391 2.32148L4.875 2.91562C5.27734 2.66406 5.70312 2.4457 6.14844 2.26445L5.88672 1.61367ZM3.86328 2.75977C3.45319 3.06713 3.06968 3.40844 2.7168 3.78008L3.22656 4.25977C3.55078 3.91719 3.90625 3.60312 4.28125 3.31992L4.09375 3.06328L3.86328 2.75977ZM6.57812 3.09492L6.40625 3.77617L14.8828 5.94336L15.0547 5.26367L6.57812 3.09492ZM2.20977 4.36133C1.88984 4.75977 1.60273 5.18945 1.35273 5.63867L1.96406 5.98242C2.19492 5.56445 2.45977 5.16992 2.75547 4.79883L2.20977 4.36133ZM7.19531 4.70508C7.04297 5.7207 7.30469 6.86133 7.75 7.79883C8 8.32227 8.30469 8.7832 8.60547 9.11914C8.76953 9.30273 8.93359 9.44336 9.08203 9.54492L8.87109 10.373C8.69141 10.3887 8.48047 10.4355 8.24609 10.5176C7.82031 10.666 7.33203 10.9238 6.86328 11.2637C6.01953 11.873 5.24609 12.7441 4.89453 13.709L11.4375 15.3848C11.5898 14.3691 11.3281 13.2285 10.8828 12.291C10.6328 11.7676 10.3281 11.3066 10.0273 10.9707C9.86328 10.7871 9.69922 10.6465 9.55078 10.5449L9.76172 9.7168C9.9375 9.69727 10.1523 9.6543 10.3867 9.57227C10.8125 9.42383 11.3008 9.16602 11.7695 8.82617C12.6133 8.2168 13.3867 7.3457 13.7383 6.38086L7.19531 4.70508ZM1.00547 6.33008C0.797266 6.79883 0.626562 7.2832 0.497656 7.78711L1.18047 7.95117C1.29883 7.49023 1.45547 7.04492 1.64727 6.61523L1.00547 6.33008ZM0.339844 8.54102C0.258203 9.0293 0.214844 9.5332 0.214844 10.0449V10.0801L0.917969 10.0723V10.0449C0.917969 9.57227 0.957813 9.10742 1.0332 8.6543L0.339844 8.54102ZM3.75 14.1465L3.57812 14.8262L12.0547 16.9941L12.2266 16.3145L3.75 14.1465Z" fill="#94A3B8"/>
</svg>
