<svg width="18" height="18" viewBox="0 0 18 18" fill="none" xmlns="http://www.w3.org/2000/svg">
<path d="M15.375 2.2H12.825V0.925C12.825 0.812283 12.7802 0.704183 12.7005 0.62448C12.6208 0.544777 12.5127 0.5 12.4 0.5C12.2873 0.5 12.1792 0.544777 12.0995 0.62448C12.0198 0.704183 11.975 0.812283 11.975 0.925V2.2H6.025V0.925C6.025 0.812283 5.98022 0.704183 5.90052 0.62448C5.82082 0.544777 5.71272 0.5 5.6 0.5C5.48728 0.5 5.37918 0.544777 5.29948 0.62448C5.21978 0.704183 5.175 0.812283 5.175 0.925V2.2H2.625C2.06162 2.20067 1.52151 2.42477 1.12314 2.82314C0.724775 3.22151 0.500675 3.76162 0.5 4.325V15.375C0.500675 15.9384 0.724775 16.4785 1.12314 16.8769C1.52151 17.2752 2.06162 17.4993 2.625 17.5H15.375C15.9384 17.4995 16.4787 17.2755 16.8771 16.8771C17.2755 16.4787 17.4995 15.9384 17.5 15.375V4.325C17.4995 3.76155 17.2755 3.22131 16.8771 2.8229C16.4787 2.42448 15.9384 2.20045 15.375 2.2ZM16.65 15.375C16.65 15.7132 16.5157 16.0375 16.2766 16.2766C16.0375 16.5157 15.7132 16.65 15.375 16.65H2.625C2.28685 16.65 1.96255 16.5157 1.72344 16.2766C1.48433 16.0375 1.35 15.7132 1.35 15.375V8.15H16.65V15.375ZM16.65 7.3H1.35V4.325C1.35 3.6212 1.9195 3.05 2.625 3.05H5.175V4.325C5.175 4.43772 5.21978 4.54582 5.29948 4.62552C5.37918 4.70522 5.48728 4.75 5.6 4.75C5.71272 4.75 5.82082 4.70522 5.90052 4.62552C5.98022 4.54582 6.025 4.43772 6.025 4.325V3.05H11.975V4.325C11.975 4.43772 12.0198 4.54582 12.0995 4.62552C12.1792 4.70522 12.2873 4.75 12.4 4.75C12.5127 4.75 12.6208 4.70522 12.7005 4.62552C12.7802 4.54582 12.825 4.43772 12.825 4.325V3.05H15.375C15.7132 3.05 16.0375 3.18433 16.2766 3.42344C16.5157 3.66255 16.65 3.98685 16.65 4.325V7.3Z" fill="#94A3B8"/>
</svg>
