<svg width="34" height="30" viewBox="0 0 34 30" fill="none" xmlns="http://www.w3.org/2000/svg">
<path d="M19.0625 9.82134C19.0625 12.2935 18.0847 14.6644 16.3441 16.4125C14.6035 18.1606 12.2428 19.1427 9.78125 19.1427C7.31971 19.1427 4.95899 18.1606 3.21842 16.4125C1.47784 14.6644 0.5 12.2935 0.5 9.82134C0.5 7.34917 1.47784 4.97825 3.21842 3.23016C4.95899 1.48207 7.31971 0.5 9.78125 0.5C12.2428 0.5 14.6035 1.48207 16.3441 3.23016C18.0847 4.97825 19.0625 7.34917 19.0625 9.82134ZM9.78125 4.64282C9.50775 4.64282 9.24544 4.75194 9.05205 4.94617C8.85865 5.1404 8.75 5.40384 8.75 5.67852V9.82134C8.75 10.096 8.85865 10.3595 9.05205 10.5537C9.24544 10.7479 9.50775 10.857 9.78125 10.857H12.875C13.1485 10.857 13.4108 10.7479 13.6042 10.5537C13.7976 10.3595 13.9062 10.096 13.9062 9.82134C13.9062 9.54665 13.7976 9.28322 13.6042 9.08899C13.4108 8.89476 13.1485 8.78564 12.875 8.78564H10.8125V5.67852C10.8125 5.40384 10.7039 5.1404 10.5105 4.94617C10.3171 4.75194 10.0548 4.64282 9.78125 4.64282ZM26.4937 18.107H17.5693C18.2238 17.4856 18.7978 16.7951 19.2914 16.0356H24.2868L22.4099 12.5017C22.105 11.9273 21.6281 11.4636 21.0466 11.176C21.1313 10.4487 21.1472 9.71488 21.0941 8.98449C21.7599 9.17535 22.3807 9.49895 22.9193 9.93597C23.4579 10.373 23.9033 10.9145 24.2291 11.5282L26.5721 15.9361L26.8484 16.0356H26.9578V16.0749L30.0721 17.1873C31.0746 17.5455 31.9422 18.2064 32.5559 19.0794C33.1697 19.9524 33.4994 20.9947 33.5 22.0634V22.7656C33.5 24.2363 32.6296 25.4998 31.3756 26.0695C31.2135 27.0024 30.738 27.8514 30.0284 28.475C29.3187 29.0986 28.4178 29.4592 27.4756 29.4967C26.5334 29.5343 25.6068 29.2465 24.8502 28.6813C24.0936 28.1161 23.5526 27.3076 23.3174 26.3905H14.8076C14.5724 27.3076 14.0314 28.1161 13.2748 28.6813C12.5182 29.2465 11.5916 29.5343 10.6494 29.4967C9.70722 29.4592 8.80626 29.0986 8.09662 28.475C7.38698 27.8514 6.9115 27.0024 6.74938 26.0695C6.1166 25.7826 5.57962 25.3185 5.20283 24.7329C4.82603 24.1473 4.62541 23.4649 4.625 22.7676V20.4601C4.625 20.2999 4.63188 20.1411 4.64563 19.9837C5.29463 20.3151 5.97525 20.583 6.6875 20.7874V22.7676C6.6875 23.1301 6.81125 23.4636 7.0175 23.7288C7.35534 22.9324 7.9331 22.2623 8.66962 21.8126C9.40614 21.3629 10.2644 21.1562 11.1239 21.2216C11.9834 21.2869 12.8009 21.6211 13.4616 22.177C14.1223 22.733 14.593 23.4828 14.8076 24.3212H23.3174C23.5325 23.4835 24.0033 22.7344 24.6638 22.1791C25.3243 21.6237 26.1413 21.29 27.0002 21.2246C27.8592 21.1593 28.7169 21.3656 29.4532 21.8147C30.1894 22.2638 30.7672 22.9332 31.1054 23.7288C31.3204 23.4549 31.4374 23.1164 31.4375 22.7676V22.0654C31.4375 20.7522 30.6125 19.5798 29.3812 19.1385L26.4937 18.107ZM8.75 25.3569C8.75 25.9063 8.9673 26.4331 9.35409 26.8216C9.74089 27.2101 10.2655 27.4283 10.8125 27.4283C11.3595 27.4283 11.8841 27.2101 12.2709 26.8216C12.6577 26.4331 12.875 25.9063 12.875 25.3569C12.875 24.8075 12.6577 24.2807 12.2709 23.8922C11.8841 23.5037 11.3595 23.2855 10.8125 23.2855C10.2655 23.2855 9.74089 23.5037 9.35409 23.8922C8.9673 24.2807 8.75 24.8075 8.75 25.3569ZM27.3125 23.2855C26.7655 23.2855 26.2409 23.5037 25.8541 23.8922C25.4673 24.2807 25.25 24.8075 25.25 25.3569C25.25 25.9063 25.4673 26.4331 25.8541 26.8216C26.2409 27.2101 26.7655 27.4283 27.3125 27.4283C27.8595 27.4283 28.3841 27.2101 28.7709 26.8216C29.1577 26.4331 29.375 25.9063 29.375 25.3569C29.375 24.8075 29.1577 24.2807 28.7709 23.8922C28.3841 23.5037 27.8595 23.2855 27.3125 23.2855Z" fill="#264A6C"/>
</svg>
