<svg width="28" height="28" viewBox="0 0 28 28" fill="none" xmlns="http://www.w3.org/2000/svg">
<path d="M19.601 23.8H8.40042V25.9C8.40042 26.457 8.17916 26.9911 7.78531 27.3849C7.39147 27.7787 6.8573 28 6.30032 28H4.90025C4.34326 28 3.80909 27.7787 3.41525 27.3849C3.0214 26.9911 2.80014 26.457 2.80014 25.9V23.562C1.98088 23.2724 1.27162 22.7358 0.770118 22.0262C0.268611 21.3166 -0.000454967 20.4689 5.77491e-07 19.6V15.4C5.77491e-07 14.532 0.263214 13.7256 0.714036 13.0564L2.23451 3.5364C2.39241 2.54966 2.89697 1.65154 3.65757 1.00337C4.41818 0.355197 5.38498 -0.000559805 6.38432 6.61218e-07H21.6171C22.6157 0.000825231 23.5813 0.357382 24.3408 1.00572C25.1002 1.65406 25.6038 2.55175 25.7613 3.5378L27.2776 13.0438C27.734 13.7158 28 14.5278 28 15.4V19.6C28.0005 20.4689 27.7314 21.3166 27.2299 22.0262C26.7284 22.7358 26.0191 23.2724 25.1999 23.562V25.9C25.1999 26.457 24.9786 26.9911 24.5848 27.3849C24.1909 27.7787 23.6567 28 23.0998 28H21.6997C21.1427 28 20.6085 27.7787 20.2147 27.3849C19.8208 26.9911 19.5996 26.457 19.5996 25.9L19.601 23.8ZM4.20021 21H23.8012C24.1725 21 24.5286 20.8525 24.7912 20.5899C25.0538 20.3274 25.2013 19.9713 25.2013 19.6V15.4C25.2013 15.0287 25.0538 14.6726 24.7912 14.4101C24.5286 14.1475 24.1725 14 23.8012 14H4.20021C3.82889 14 3.47278 14.1475 3.21021 14.4101C2.94765 14.6726 2.80014 15.0287 2.80014 15.4V19.6C2.80014 19.9713 2.94765 20.3274 3.21021 20.5899C3.47278 20.8525 3.82889 21 4.20021 21ZM24.1512 11.214L22.9975 3.9788C22.945 3.65036 22.7772 3.35136 22.5243 3.13536C22.2713 2.91937 21.9497 2.80048 21.6171 2.8H6.38292C6.04981 2.79981 5.72754 2.9184 5.474 3.13446C5.22047 3.35051 5.05228 3.64989 4.99965 3.9788L3.84459 11.2154C3.96286 11.2052 4.08151 11.2001 4.20021 11.2H23.8012C23.9197 11.2 24.0364 11.2047 24.1512 11.214ZM21.7011 16.8C21.5154 16.8 21.3374 16.8737 21.2061 17.005C21.0748 17.1363 21.001 17.3143 21.001 17.5C21.001 17.6857 21.0748 17.8637 21.2061 17.995C21.3374 18.1263 21.5154 18.2 21.7011 18.2C21.8867 18.2 22.0648 18.1263 22.1961 17.995C22.3274 17.8637 22.4011 17.6857 22.4011 17.5C22.4011 17.3143 22.3274 17.1363 22.1961 17.005C22.0648 16.8737 21.8867 16.8 21.7011 16.8ZM21.7011 19.6C21.4253 19.6 21.1522 19.5457 20.8974 19.4401C20.6426 19.3346 20.4111 19.1799 20.2161 18.9849C20.0211 18.7899 19.8664 18.5584 19.7608 18.3036C19.6553 18.0489 19.601 17.7758 19.601 17.5C19.601 17.2242 19.6553 16.9511 19.7608 16.6964C19.8664 16.4416 20.0211 16.2101 20.2161 16.0151C20.4111 15.8201 20.6426 15.6654 20.8974 15.5599C21.1522 15.4543 21.4253 15.4 21.7011 15.4C22.2581 15.4 22.7922 15.6212 23.1861 16.0151C23.5799 16.4089 23.8012 16.943 23.8012 17.5C23.8012 18.057 23.5799 18.5911 23.1861 18.9849C22.7922 19.3787 22.2581 19.6 21.7011 19.6ZM6.30032 16.8C6.11465 16.8 5.9366 16.8737 5.80532 17.005C5.67403 17.1363 5.60028 17.3143 5.60028 17.5C5.60028 17.6857 5.67403 17.8637 5.80532 17.995C5.9366 18.1263 6.11465 18.2 6.30032 18.2C6.48598 18.2 6.66403 18.1263 6.79531 17.995C6.9266 17.8637 7.00035 17.6857 7.00035 17.5C7.00035 17.3143 6.9266 17.1363 6.79531 17.005C6.66403 16.8737 6.48598 16.8 6.30032 16.8ZM6.30032 19.6C6.02453 19.6 5.75144 19.5457 5.49664 19.4401C5.24184 19.3346 5.01033 19.1799 4.81532 18.9849C4.6203 18.7899 4.46561 18.5584 4.36007 18.3036C4.25453 18.0489 4.20021 17.7758 4.20021 17.5C4.20021 17.2242 4.25453 16.9511 4.36007 16.6964C4.46561 16.4416 4.6203 16.2101 4.81532 16.0151C5.01033 15.8201 5.24184 15.6654 5.49664 15.5599C5.75144 15.4543 6.02453 15.4 6.30032 15.4C6.8573 15.4 7.39147 15.6212 7.78531 16.0151C8.17916 16.4089 8.40042 16.943 8.40042 17.5C8.40042 18.057 8.17916 18.5911 7.78531 18.9849C7.39147 19.3787 6.8573 19.6 6.30032 19.6ZM7.28596 4.3316C7.65729 4.3316 8.0134 4.4791 8.27596 4.74165C8.53853 5.0042 8.68603 5.3603 8.68603 5.7316V8.5316C8.68603 8.9029 8.53853 9.259 8.27596 9.52155C8.0134 9.7841 7.65729 9.9316 7.28596 9.9316C6.91464 9.9316 6.55853 9.7841 6.29597 9.52155C6.0334 9.259 5.88589 8.9029 5.88589 8.5316V5.7316C5.88589 5.3603 6.0334 5.0042 6.29597 4.74165C6.55853 4.4791 6.91464 4.3316 7.28596 4.3316Z" fill="#264A6C"/>
</svg>
