<svg width="34" height="35" viewBox="0 0 34 35" fill="none" xmlns="http://www.w3.org/2000/svg">
<path d="M7.38337 34.1668H3.02837C2.2606 34.1668 1.62004 33.9102 1.10671 33.3968C0.593374 32.8835 0.335596 32.2429 0.333374 31.4752V27.1152H2.00004V31.4752C2.00004 31.7741 2.09615 32.0196 2.28837 32.2118C2.4806 32.4041 2.72671 32.5002 3.02671 32.5002H7.38337V34.1668ZM26.6167 34.1668V32.5002H30.975C31.2739 32.5002 31.5195 32.4041 31.7117 32.2118C31.9039 32.0196 32 31.7741 32 31.4752V27.1152H33.6667V31.4752C33.6667 32.2418 33.41 32.8818 32.8967 33.3952C32.3834 33.9085 31.7428 34.1657 30.975 34.1668H26.6167ZM17 27.0502C14.03 27.0502 11.3617 26.2091 8.99504 24.5268C6.62837 22.8424 4.84171 20.5002 3.63504 17.5002C4.84171 14.5002 6.62837 12.1579 8.99504 10.4735C11.3617 8.79127 14.03 7.95016 17 7.95016C19.97 7.95016 22.6384 8.79183 25.005 10.4752C27.3717 12.1585 29.1584 14.5002 30.365 17.5002C29.1584 20.5002 27.3717 22.8424 25.005 24.5268C22.6384 26.2091 19.97 27.0502 17 27.0502ZM17 25.3835C19.53 25.3835 21.7984 24.6952 23.805 23.3185C25.8117 21.9418 27.3878 20.0024 28.5334 17.5002C27.3867 14.9957 25.81 13.0557 23.8034 11.6802C21.7967 10.3046 19.5289 9.61627 17 9.61516C14.4712 9.61405 12.2028 10.3024 10.195 11.6802C8.18726 13.0579 6.61115 14.9979 5.46671 17.5002C6.61449 20.0046 8.19115 21.9446 10.1967 23.3202C12.2023 24.6957 14.47 25.3841 17 25.3852M17 22.2752C18.3334 22.2752 19.4628 21.8129 20.3884 20.8885C21.3139 19.9641 21.7767 18.8346 21.7767 17.5002C21.7767 16.1657 21.3139 15.0363 20.3884 14.1118C19.4628 13.1874 18.3334 12.7252 17 12.7252C15.6667 12.7252 14.5373 13.1874 13.6117 14.1118C12.6862 15.0363 12.2239 16.1657 12.225 17.5002C12.2262 18.8346 12.6884 19.9641 13.6117 20.8885C14.535 21.8129 15.6645 22.2757 17 22.2768M17 20.6102C16.1345 20.6102 15.4 20.3079 14.7967 19.7035C14.1934 19.1002 13.8917 18.3657 13.8917 17.5002C13.8917 16.6346 14.1934 15.9002 14.7967 15.2968C15.4 14.6935 16.1345 14.3918 17 14.3918C17.8656 14.3918 18.6 14.6935 19.2034 15.2968C19.8078 15.9002 20.11 16.6346 20.11 17.5002C20.11 18.3657 19.8078 19.1002 19.2034 19.7035C18.6 20.3079 17.8656 20.6102 17 20.6102ZM0.333374 7.8835V3.52683C0.333374 2.75905 0.590596 2.1185 1.10504 1.60516C1.61949 1.09183 2.26004 0.834607 3.02671 0.833496H7.38337V2.50016H3.02671C2.72671 2.50016 2.4806 2.59627 2.28837 2.7885C2.09615 2.98072 2.00004 3.22683 2.00004 3.52683V7.8835H0.333374ZM32 7.8835V3.52683C32 3.22683 31.9039 2.98072 31.7117 2.7885C31.5195 2.59627 31.2739 2.50016 30.975 2.50016H26.615V0.833496H30.975C31.7417 0.833496 32.3817 1.09072 32.895 1.60516C33.4084 2.11961 33.6656 2.76016 33.6667 3.52683V7.8835H32Z" fill="#264A6C"/>
</svg>
